# Blender v2.91.0 OBJ File: 'LowPolyRocks.blend'
# www.blender.org
mtllib Rock5.mtl
o Rock5_Cube.005
v -0.652913 -0.724700 0.483781
v -0.855111 0.768305 0.522837
v -0.724458 -0.267359 -0.882367
v -0.840145 -0.434057 -0.770049
v 0.316599 1.063259 0.147110
v -0.955130 0.899480 0.302795
v 0.931028 -0.596252 0.325142
v 0.991627 -0.586850 -0.049764
v -0.432709 -0.210285 0.835412
v -1.109746 -0.263777 0.360370
v -1.134996 -0.301950 -0.264295
v 1.136101 -0.178329 0.242224
v -0.932096 -0.552495 0.389122
v -0.836365 -0.498356 0.649148
v 0.383753 -0.769038 -0.836327
v 0.049598 -0.756091 -0.911924
v -0.471657 -0.569278 -0.937098
v -0.786880 -0.642566 -0.586599
v 0.526278 0.243598 -0.384510
v 0.786653 -0.097356 0.859903
v 0.669351 -0.386912 0.865899
v -0.947604 0.195032 -0.592354
v -0.350706 1.035124 0.523091
v 0.670737 0.866755 0.232487
v -0.473697 -0.664908 0.718925
v -0.103377 -0.550259 0.877702
v 0.141342 -0.664026 0.829958
v 0.638013 -0.635061 0.707529
v -0.990409 0.721503 -0.316617
v -0.259704 0.981525 -0.382744
v -0.171111 0.526257 -0.475963
v -0.379817 1.149846 -0.173632
v -0.222763 1.211522 0.253532
v -0.780819 1.050426 -0.138775
v 0.299193 1.050478 0.404227
v -0.692456 1.141072 0.243293
v -0.412744 0.977474 -0.385240
v -0.890437 1.008375 0.018865
v 0.431830 0.071661 0.870536
v 0.368672 -0.315932 0.938496
v 0.828467 0.379995 0.713017
v 0.540043 0.786474 0.584463
v -0.644822 -0.443677 0.780181
v -1.220609 0.076735 0.131489
v -1.095772 0.549432 0.339075
v -1.129561 0.673032 -0.015513
v -1.139594 -0.112580 -0.405003
v -1.010057 0.095610 0.582885
v -1.138336 0.199398 -0.419248
v -1.012423 -0.542670 -0.057785
v -0.146191 -0.893786 -0.589175
v -0.606469 -0.822300 -0.047382
v 0.621915 -0.891013 -0.016731
v 0.151062 -0.976447 -0.142782
v -0.228236 -0.861875 0.463288
v 0.279345 -0.854684 0.471658
v 0.664246 -0.833539 -0.525005
v 0.945314 -0.369874 -0.358964
v 1.122611 0.141737 0.217349
v 0.853129 0.575400 0.082628
v 1.098726 0.022765 0.546236
v 0.114825 0.716624 -0.292377
v 0.929852 0.631497 0.328492
v 1.004668 0.484481 0.493946
v 1.020453 0.218223 0.631371
v 0.931275 -0.349493 0.672786
v -0.309470 0.566908 -0.583197
v -0.068877 0.016121 -0.981205
v -0.102112 -0.429754 -1.094957
v -0.090912 1.097499 -0.191325
v -0.617602 1.078624 0.432908
v 0.716226 0.805896 0.476909
v 0.265778 -0.934481 -0.523478
v -0.476348 -0.730049 -0.743591
v 0.722765 -0.710819 -0.672898
v 0.513413 -0.382693 -0.897942
v 0.150585 -0.283700 -1.058961
v 0.320714 -0.550744 -1.014293
vt 0.445401 0.936296
vt 0.445796 0.936991
vt 0.445075 0.936835
vt 0.445990 0.936235
vt 0.446456 0.936967
vt 0.446606 0.936271
vt 0.445828 0.937925
vt 0.445242 0.937423
vt 0.446387 0.937452
vt 0.444319 0.935145
vt 0.445465 0.935577
vt 0.444551 0.935826
vt 0.445918 0.935669
vt 0.446826 0.936628
vt 0.446992 0.937243
vt 0.445814 0.938906
vt 0.444866 0.938278
vt 0.444622 0.937140
vt 0.444683 0.937816
vt 0.442959 0.939836
vt 0.443208 0.938799
vt 0.442827 0.938247
vt 0.442575 0.938889
vt 0.443193 0.940474
vt 0.442600 0.940213
vt 0.442273 0.940463
vt 0.441278 0.939052
vt 0.442295 0.939464
vt 0.443387 0.931592
vt 0.442772 0.932128
vt 0.442898 0.931265
vt 0.444094 0.931231
vt 0.443424 0.930854
vt 0.443583 0.932428
vt 0.443106 0.932342
vt 0.442450 0.930740
vt 0.442782 0.930547
vt 0.444516 0.930748
vt 0.443654 0.933099
vt 0.442954 0.933303
vt 0.442612 0.932990
vt 0.442200 0.932639
vt 0.442366 0.931877
vt 0.442350 0.931227
vt 0.440650 0.935987
vt 0.440990 0.936596
vt 0.440085 0.936736
vt 0.440619 0.937416
vt 0.441625 0.936700
vt 0.441158 0.936008
vt 0.439903 0.937535
vt 0.441169 0.937407
vt 0.440157 0.935712
vt 0.439737 0.935897
vt 0.441525 0.934949
vt 0.441508 0.935210
vt 0.441909 0.935480
vt 0.441626 0.935940
vt 0.442290 0.936641
vt 0.442125 0.937256
vt 0.441624 0.938052
vt 0.441344 0.938356
vt 0.439609 0.937199
vt 0.439609 0.936724
vt 0.442620 0.936194
vt 0.443994 0.936739
vt 0.443369 0.937053
vt 0.442838 0.937066
vt 0.443052 0.937543
vt 0.446635 0.935553
vt 0.447109 0.936644
vt 0.443719 0.936087
vt 0.444184 0.937322
vt 0.443682 0.938168
vt 0.443906 0.937633
vt 0.442317 0.937834
vt 0.442179 0.938489
vt 0.443352 0.934529
vt 0.442734 0.934222
vt 0.444191 0.934506
vt 0.442915 0.934681
vt 0.442240 0.933736
vt 0.442672 0.935300
vt 0.442445 0.934741
vt 0.439666 0.937881
vt 0.444279 0.931907
vt 0.442110 0.931075
vt 0.444585 0.931482
vt 0.444857 0.933171
vt 0.443383 0.937783
vn 0.2281 0.9573 -0.1778
vn -0.1459 0.9853 -0.0886
vn -0.2510 0.9533 -0.1681
vn 0.0857 0.8146 0.5737
vn -0.1460 0.9211 0.3610
vn -0.0423 0.8451 0.5329
vn 0.3949 0.2574 -0.8819
vn -0.0103 0.7761 -0.6306
vn 0.1099 0.8042 -0.5842
vn -0.2423 0.7703 -0.5898
vn -0.6537 0.7444 0.1365
vn -0.5478 0.7061 0.4488
vn -0.2263 0.4269 0.8755
vn 0.1245 0.6344 0.7629
vn 0.4856 0.8652 0.1250
vn -0.1202 0.2489 0.9610
vn 0.1035 0.1554 0.9824
vn -0.1324 0.2493 0.9593
vn -0.3243 0.1579 0.9327
vn -0.3533 0.1010 0.9300
vn -0.3822 -0.5092 0.7712
vn -0.1885 -0.0607 0.9802
vn -0.2411 -0.4277 0.8712
vn -0.9598 -0.2751 0.0556
vn -0.9058 0.0547 0.4202
vn -0.9889 -0.0028 -0.1484
vn -0.7784 -0.1599 0.6070
vn -0.5500 -0.0680 0.8324
vn -0.7117 0.2234 0.6660
vn -0.6636 0.1406 -0.7347
vn -0.7837 -0.0252 -0.6207
vn -0.8513 -0.3261 -0.4111
vn -0.7990 -0.4992 -0.3354
vn -0.7790 -0.5866 -0.2214
vn -0.8493 -0.5085 0.1415
vn -0.2046 -0.9778 -0.0448
vn -0.1910 -0.9794 0.0656
vn 0.1913 -0.9802 -0.0504
vn -0.2976 -0.9433 0.1473
vn 0.1329 -0.9771 0.1659
vn -0.3583 -0.9118 -0.2007
vn -0.1969 -0.8530 -0.4834
vn 0.0665 -0.8922 -0.4467
vn 0.3750 -0.7809 -0.4996
vn 0.6331 -0.7733 -0.0347
vn 0.6375 -0.7658 0.0838
vn 0.4793 -0.8308 0.2829
vn 0.1757 -0.8394 0.5143
vn -0.2606 -0.8695 0.4197
vn -0.5667 -0.8196 0.0838
vn 0.7848 0.3235 -0.5286
vn 0.9515 0.0162 -0.3071
vn 0.9547 -0.1568 -0.2530
vn 0.9947 0.0489 0.0899
vn -0.7484 0.5975 -0.2879
vn 0.2811 0.4132 -0.8662
vn 0.1961 0.3490 -0.9164
vn 0.4919 0.6215 -0.6097
vn 0.6968 0.6209 -0.3591
vn 0.5324 0.5134 0.6731
vn 0.7122 0.6528 0.2580
vn 0.4015 0.5227 0.7520
vn 0.6533 -0.6176 0.4379
vn 0.5988 -0.2267 0.7682
vn 0.8846 -0.3806 0.2695
vn 0.9002 -0.2815 -0.3324
vn 0.7624 -0.6130 -0.2070
vn -0.2517 0.2568 -0.9331
vn -0.2699 0.4837 -0.8326
vn -0.0051 0.2476 -0.9689
vn -0.4730 -0.2425 -0.8470
vn -0.2410 0.4348 -0.8677
vn 0.0032 0.4350 -0.9004
vn 0.6382 0.2717 -0.7204
vn 0.3622 0.6915 -0.6249
vn 0.4609 0.5232 -0.7168
vn 0.4758 0.5517 -0.6849
vn 0.1549 -0.5970 -0.7871
vn -0.1521 -0.5363 -0.8302
vn 0.1629 0.9663 -0.1994
vn 0.2766 0.9587 0.0664
vn -0.3543 0.6093 -0.7094
vn -0.4755 0.8743 -0.0974
vn -0.8154 0.5778 0.0358
vn -0.5433 0.5891 0.5981
vn 0.3072 0.7116 0.6318
vn 0.4698 0.8795 0.0755
vn 0.5194 0.6453 -0.5602
vn -0.1009 0.1878 0.9770
vn 0.2188 -0.0685 0.9734
vn 0.2306 -0.5440 0.8068
vn 0.1605 0.2774 0.9472
vn 0.0906 0.3582 0.9292
vn 0.0382 0.3663 0.9297
vn -0.1276 -0.0002 0.9918
vn 0.0364 -0.3191 0.9470
vn 0.1335 -0.3734 0.9180
vn -0.4371 -0.7340 0.5198
vn -0.9697 0.1869 0.1575
vn -0.9880 -0.1068 -0.1115
vn -0.9854 0.1208 -0.1203
vn -0.8012 -0.4542 0.3895
vn -0.5753 -0.7324 0.3643
vn -0.7503 0.3590 0.5551
vn -0.8973 0.3832 0.2191
vn -0.8789 0.3188 -0.3549
vn -0.6331 0.3181 -0.7056
vn -0.7249 0.0397 -0.6878
vn -0.9099 -0.4102 0.0618
vn -0.0766 -0.9883 -0.1320
vn 0.2443 -0.9656 -0.0888
vn 0.0107 -0.9813 0.1922
vn -0.2367 -0.7445 -0.6243
vn -0.0256 -0.9138 -0.4054
vn 0.2249 -0.8938 -0.3879
vn 0.3425 -0.8882 0.3063
vn 0.0047 -0.8820 0.4712
vn -0.0976 -0.8315 0.5470
vn -0.1383 -0.6213 0.7713
vn 0.8393 0.4111 -0.3557
vn -0.5476 -0.8302 0.1047
vn -0.3594 -0.9147 -0.1846
vn -0.5637 -0.8216 -0.0852
vn 0.7278 0.3473 -0.5914
vn 0.4286 0.5675 -0.7030
vn 0.9021 -0.3005 0.3097
vn 0.7778 0.0677 -0.6249
vn 0.9214 0.3805 -0.0786
vn 0.9658 0.2134 0.1473
vn 0.8999 -0.4148 0.1350
vn 0.4885 0.5128 -0.7060
vn 0.5047 0.4655 -0.7271
vn 0.6576 0.7506 0.0645
vn 0.6183 0.3891 0.6829
vn 0.9174 0.2241 0.3289
vn 0.7126 -0.0201 0.7013
vn 0.5258 0.2077 0.8248
vn 0.7234 -0.0928 0.6842
vn 0.5604 -0.4947 0.6642
vn -0.3025 0.3974 -0.8664
vn -0.2670 0.3632 -0.8926
vn 0.5838 0.6274 -0.5154
vn 0.4307 0.1249 -0.8938
vn 0.4460 -0.4847 -0.7525
vn -0.3497 -0.1245 -0.9286
vn 0.0307 -0.4781 -0.8778
vn -0.4897 -0.6535 -0.5771
vn -0.9060 -0.0106 0.4231
vn 0.1719 -0.0550 -0.9836
vn 0.6042 -0.1511 -0.7824
usemtl Material
s off
f 70/1/1 33/2/1 5/3/1
f 32/4/2 36/5/2 33/2/2
f 32/4/3 34/6/3 36/5/3
f 33/2/4 23/7/4 35/8/4
f 36/5/5 71/9/5 33/2/5
f 33/2/6 71/9/6 23/7/6
f 31/10/7 30/11/7 62/12/7
f 37/13/8 32/4/8 30/11/8
f 30/11/9 32/4/9 70/1/9
f 37/13/10 34/6/10 32/4/10
f 38/14/11 6/15/11 36/5/11
f 36/5/12 6/15/12 71/9/12
f 71/9/13 2/16/13 23/7/13
f 35/8/14 23/7/14 42/17/14
f 24/18/15 35/8/15 72/19/15
f 23/7/16 9/20/16 39/21/16
f 20/22/17 39/21/17 40/23/17
f 23/7/18 2/16/18 9/20/18
f 2/16/19 48/24/19 9/20/19
f 9/20/20 48/24/20 43/25/20
f 43/25/21 14/26/21 25/27/21
f 26/28/22 9/20/22 43/25/22
f 43/25/23 25/27/23 26/28/23
f 44/29/24 11/30/24 10/31/24
f 45/32/25 44/29/25 48/33/25
f 44/29/26 49/34/26 47/35/26
f 48/33/27 10/31/27 14/36/27
f 48/33/28 14/36/28 43/37/28
f 2/38/29 45/32/29 48/33/29
f 49/34/30 22/39/30 3/40/30
f 47/35/31 49/34/31 4/41/31
f 11/30/32 47/35/32 4/41/32
f 11/30/33 4/41/33 18/42/33
f 50/43/34 11/30/34 18/42/34
f 10/31/35 50/43/35 13/44/35
f 51/45/36 54/46/36 52/47/36
f 54/46/37 55/48/37 52/47/37
f 53/49/38 54/46/38 73/50/38
f 55/48/39 1/51/39 52/47/39
f 53/49/40 56/52/40 54/46/40
f 74/53/41 51/45/41 18/54/41
f 16/55/42 51/45/42 74/53/42
f 15/56/43 73/50/43 16/55/43
f 75/57/44 57/58/44 15/56/44
f 8/59/45 53/49/45 57/58/45
f 8/59/46 7/60/46 53/49/46
f 7/60/47 28/61/47 53/49/47
f 28/61/48 27/62/48 56/52/48
f 55/48/49 25/27/49 1/51/49
f 52/47/50 13/63/50 50/64/50
f 58/65/51 60/66/51 59/67/51
f 59/67/52 12/68/52 58/65/52
f 58/65/53 12/68/53 8/59/53
f 59/67/54 61/69/54 12/68/54
f 34/6/55 29/70/55 46/71/55 38/14/55
f 31/10/56 62/12/56 19/72/56
f 62/12/57 70/1/57 19/72/57
f 60/66/58 5/3/58 24/18/58
f 60/66/59 24/18/59 63/73/59
f 72/19/60 41/74/60 64/75/60
f 63/73/61 72/19/61 64/75/61
f 72/19/62 42/17/62 41/74/62
f 66/76/63 28/61/63 7/60/63
f 66/76/64 20/22/64 21/77/64
f 12/68/65 66/76/65 7/60/65
f 58/65/66 8/59/66 75/57/66
f 75/57/67 8/59/67 57/58/67
f 3/40/68 68/78/68 69/79/68
f 22/39/69 67/80/69 68/78/69
f 69/79/70 68/78/70 77/81/70
f 4/41/71 3/40/71 17/82/71
f 29/70/72 67/80/72 22/39/72
f 37/13/73 30/11/73 67/80/73
f 67/80/74 30/11/74 31/10/74
f 68/78/75 31/10/75 19/72/75
f 77/81/76 68/78/76 76/83/76
f 68/78/77 19/72/77 76/83/77
f 16/55/78 78/84/78 15/56/78
f 17/82/79 69/79/79 16/55/79
f 70/1/80 32/4/80 33/2/80
f 5/3/81 33/2/81 35/8/81
f 37/13/82 29/70/82 34/6/82
f 36/5/83 34/6/83 38/14/83
f 38/14/84 46/71/84 6/15/84
f 71/9/85 6/15/85 2/16/85
f 72/19/86 35/8/86 42/17/86
f 24/18/87 5/3/87 35/8/87
f 60/66/88 70/1/88 5/3/88
f 40/23/89 39/21/89 9/20/89
f 21/77/90 20/22/90 40/23/90
f 28/61/91 21/77/91 27/62/91
f 20/22/92 41/74/92 39/21/92
f 41/74/93 42/17/93 39/21/93
f 42/17/94 23/7/94 39/21/94
f 26/28/95 40/23/95 9/20/95
f 27/62/96 40/23/96 26/28/96
f 27/62/97 21/77/97 40/23/97
f 14/85/98 1/51/98 25/27/98
f 44/29/99 45/32/99 46/86/99
f 11/30/100 44/29/100 47/35/100
f 44/29/101 46/86/101 49/34/101
f 14/36/102 10/31/102 13/44/102
f 14/36/103 13/44/103 1/87/103
f 2/38/104 6/88/104 45/32/104
f 45/32/105 6/88/105 46/86/105
f 49/34/106 46/86/106 29/89/106
f 49/34/107 29/89/107 22/39/107
f 4/41/108 49/34/108 3/40/108
f 10/31/109 11/30/109 50/43/109
f 51/45/110 73/50/110 54/46/110
f 57/58/111 53/49/111 73/50/111
f 54/46/112 56/52/112 55/48/112
f 17/82/113 16/55/113 74/53/113
f 16/55/114 73/50/114 51/45/114
f 15/56/115 57/58/115 73/50/115
f 53/49/116 28/61/116 56/52/116
f 56/52/117 27/62/117 55/48/117
f 55/48/118 27/62/118 25/27/118
f 27/62/119 26/28/119 25/27/119
f 59/67/120 60/66/120 63/73/120
f 52/47/121 1/51/121 13/63/121
f 18/54/122 51/45/122 52/47/122
f 50/64/123 18/54/123 52/47/123
f 58/65/124 76/83/124 60/66/124
f 76/83/125 19/72/125 60/66/125
f 12/68/126 61/69/126 66/76/126
f 58/65/127 75/57/127 76/83/127
f 59/67/128 63/73/128 64/75/128
f 59/67/129 64/75/129 61/69/129
f 8/59/130 12/68/130 7/60/130
f 19/72/131 70/1/131 60/66/131
f 62/12/132 30/11/132 70/1/132
f 63/73/133 24/18/133 72/19/133
f 64/75/134 41/74/134 65/90/134
f 61/69/135 64/75/135 65/90/135
f 61/69/136 65/90/136 20/22/136
f 20/22/137 65/90/137 41/74/137
f 66/76/138 61/69/138 20/22/138
f 66/76/139 21/77/139 28/61/139
f 3/40/140 22/39/140 68/78/140
f 29/70/141 37/13/141 67/80/141
f 68/78/142 67/80/142 31/10/142
f 78/84/143 77/81/143 76/83/143
f 75/57/144 15/56/144 78/84/144
f 69/79/145 17/82/145 3/40/145
f 16/55/146 69/79/146 78/84/146
f 4/41/147 17/82/147 74/53/147 18/42/147
f 10/31/148 48/33/148 44/29/148
f 77/81/149 78/84/149 69/79/149
f 76/83/150 75/57/150 78/84/150
