# Blender v2.83.3 OBJ File: 'Killer Whale.blend'
# www.blender.org
mtllib Killer Whale.mtl
o Cube
v 0.409703 0.960967 -3.685272
v 0.470578 -0.247896 -3.678069
v 0.402164 0.973473 -2.361992
v 0.585311 -0.083283 -2.242051
v 0.399633 -0.101821 -4.375024
v 0.338759 0.877903 -4.378366
v 0.330641 0.050918 -5.080215
v 0.283934 0.771010 -5.083720
v 0.258806 0.165846 -5.670832
v 0.242124 0.669821 -5.677450
v 0.190047 0.239751 -6.173039
v 0.181528 0.595476 -6.177434
v 0.087106 0.299745 -6.611900
v 0.129101 0.523802 -6.610222
v 0.197722 0.345971 -6.925522
v 0.093590 0.472288 -6.918965
v 0.669205 0.343706 -7.182138
v 0.083618 0.453976 -7.173124
v 1.069179 0.339056 -7.501154
v 0.028334 0.405614 -7.492140
v 1.104779 0.334312 -7.568562
v 0.012337 0.413435 -7.587557
v 0.409703 0.998485 -3.023632
v 0.500733 -0.304172 -3.016428
v 0.370381 0.856266 -1.535257
v 0.529766 -0.077840 -1.620156
v 0.341309 0.747938 -0.984207
v 0.499111 -0.059524 -1.318249
v 0.320950 0.651431 -0.640717
v 0.396367 -0.096222 -0.638754
v 0.227879 0.545888 -0.218546
v 0.266939 0.036460 -0.216583
v 0.160341 0.497311 -0.077674
v 0.202320 0.082374 -0.075712
v 0.089849 0.415386 0.063128
v 0.132574 0.122758 0.069688
v 0.047516 0.378633 0.145630
v 0.088736 0.172600 0.152001
v 0.034492 0.297204 0.202822
v 0.066879 0.233649 0.203562
v 0.683352 0.242023 -3.685375
v 0.646201 0.001197 -2.244328
v 0.579840 0.295135 -4.380763
v 0.442094 0.336621 -5.084614
v 0.312361 0.353291 -5.674202
v 0.218272 0.352065 -6.175616
v 0.150748 0.366208 -6.613405
v 0.214609 0.410488 -6.926216
v 0.690917 0.393541 -7.182865
v 1.090891 0.366058 -7.501881
v 1.126491 0.366413 -7.569288
v 0.736123 0.223799 -3.023735
v 0.617786 0.015669 -1.627229
v 0.570002 0.010975 -1.319353
v 0.587327 0.206583 -0.643934
v 0.379506 0.242617 -0.221763
v 0.300126 0.245036 -0.080891
v 0.182343 0.224547 0.067399
v 0.120461 0.235761 0.149457
v 0.083254 0.262035 0.202759
v 0.110214 0.329438 -6.768698
v 0.103083 0.506953 -6.766881
v 0.153361 0.388348 -6.769810
v 0.911409 0.341381 -7.341646
v 0.055976 0.429795 -7.332632
v 0.933121 0.379800 -7.342373
v 0.010429 0.334312 -7.596071
v 1.119612 0.334312 -7.613933
v 0.070798 0.413435 -7.648546
v 1.141324 0.366413 -7.614660
v 0.068890 0.334312 -7.657060
v 1.138226 0.334312 -7.701071
v 0.162124 0.413435 -7.713696
v 1.159938 0.366413 -7.701798
v 0.160216 0.334312 -7.722210
v 0.661031 0.389924 -7.655046
v 0.649221 0.334312 -7.658939
v 0.901759 0.378168 -7.650500
v 0.884998 0.334312 -7.652083
v 1.119379 0.334312 -7.772271
v 1.141091 0.366413 -7.772997
v 1.065448 0.378168 -7.700061
v 1.048688 0.334312 -7.701644
v 0.416934 0.334312 -7.688829
v 0.423793 0.401679 -7.682625
v 0.297301 0.334312 -7.713374
v 0.301684 0.407557 -7.706014
v 0.049742 1.174612 -3.031979
v 0.042295 1.148777 -2.371660
v 0.043088 1.136271 -3.694941
v 0.035189 1.508985 -3.059197
v 0.018698 1.750408 -3.141448
v 0.029055 1.736871 -3.281463
v 0.020453 1.514845 -3.024880
v 0.033019 1.166697 -3.412393
v 0.036229 1.504480 -3.311212
v 0.034307 1.180311 -2.883380
v 0.016855 1.894989 -3.296287
v 0.017911 1.902429 -3.238751
v 0.020150 1.868845 -3.217876
v 0.020799 1.866911 -3.297132
v 0.025263 1.868327 -3.239112
v 0.017606 1.905080 -3.257836
v 0.022109 1.748070 -3.177757
v 0.768791 0.229726 -2.362094
v 0.503246 -0.277125 -2.354788
v 0.468950 -0.211978 -1.530741
v 0.644043 0.203999 -0.987424
v 0.422543 -0.166451 -0.982244
v 0.721931 0.220892 -1.536957
v 1.345987 -0.335090 -2.469636
v 1.285098 -0.366089 -2.467358
v 1.495304 -0.364092 -2.413442
v 1.618912 -0.331502 -2.284597
v 1.548022 -0.357371 -2.283492
v 1.583324 -0.329779 -2.420516
v 1.127540 -0.175286 -1.523084
v 1.141454 -0.171990 -2.036786
v 1.056649 -0.224781 -1.521979
v 0.940592 -0.182150 -2.369896
v 0.879703 -0.241462 -2.367619
v 1.053433 -0.237640 -2.029713
v 1.430545 -0.244267 -1.856943
v 1.359655 -0.296875 -1.855838
v 1.143290 -0.251563 -2.419766
v 1.274368 -0.310543 -2.221578
v 1.362389 -0.240763 -2.228651
v 1.082400 -0.314604 -2.417489
v 0.628686 0.634254 -3.695021
v 0.629273 0.623013 -2.360496
v 0.535194 0.617326 -4.394051
v 0.411607 0.569582 -5.095148
v 0.315645 0.515493 -5.684927
v 0.224541 0.456449 -6.179301
v 0.159873 0.432786 -6.612105
v 0.154100 0.441388 -6.922590
v 0.387268 0.423759 -7.177995
v 0.559612 0.385836 -7.497010
v 0.569414 0.389924 -7.578423
v 0.633449 0.637117 -3.026145
v 0.593360 0.563992 -1.530872
v 0.546069 0.506161 -0.976983
v 0.498010 0.453575 -0.629116
v 0.246553 0.379711 -0.067709
v 0.152405 0.328305 0.077166
v 0.103918 0.319430 0.163889
v 0.058872 0.283466 0.202844
v 0.156252 0.450395 -6.765219
v 0.494549 0.404797 -7.337502
v 0.606061 0.389924 -7.631603
v 0.395051 0.568627 -0.635862
v 0.525210 0.378359 -0.633629
v 0.537199 0.496455 -0.912779
v 0.505383 0.329044 -0.553213
v 0.357595 0.578635 -0.573228
v 0.511338 0.524537 -0.911776
v 0.543942 0.475675 -0.913521
v 0.316375 0.485367 -0.325445
v 0.561521 0.277947 -0.639653
v 0.369535 0.272994 -0.219455
v 0.599679 0.251584 -0.816531
v 0.465073 0.277195 -0.429742
v 0.070217 0.224326 0.195687
v 0.177454 0.241491 0.068994
v 0.118558 0.231972 0.149610
v 0.129841 0.234061 0.137019
v 0.295078 0.257725 -0.079649
v 0.450232 -0.193615 -1.309509
v 0.274949 -0.338192 -2.354788
v 0.312677 -0.256836 -1.530741
v 0.241016 -0.372947 -3.029174
v 0.181860 -0.330486 -3.678069
v 0.378255 0.172973 -5.082094
v 0.555069 0.240571 -4.379974
v 0.455235 -0.216306 -3.828792
v 0.583292 0.181205 -4.077393
v 0.435208 -0.065592 -4.252747
v 0.381998 -0.164832 -4.137995
v 0.366665 0.143263 -5.081637
v 0.442884 -0.006549 -4.376401
v 0.203284 -0.236479 -4.083291
v 0.148233 -0.186503 -4.375024
v 0.562012 0.064532 -3.927068
v 0.055810 -0.060972 -5.080216
v 0.016580 0.702971 -6.179211
v 0.035574 0.802251 -5.678892
v 0.035288 1.159840 -3.476066
v 0.110958 1.103818 -3.693151
v 0.057946 0.915320 -5.089560
v 0.084638 1.024864 -4.386471
v 0.074388 1.142375 -3.352929
v 0.150379 1.108716 -3.295031
v 0.215514 1.078113 -3.273319
v 0.266175 1.051941 -3.295031
v 0.371115 0.997911 -3.360166
v 0.371115 0.995039 -3.410826
v 0.197421 1.070762 -3.544716
v 0.139523 1.095866 -3.591758
v 0.013404 1.167712 -3.503726
v 0.348583 0.412386 -0.264794
v 0.325840 0.406117 -0.209344
v 0.396641 0.352439 -0.328645
v 0.348888 0.335898 -0.214677
v 0.017226 1.902943 -3.276173
v 0.402138 0.204733 -5.033429
v 0.361650 0.110798 -5.036016
v 0.366766 0.096514 -4.979512
v 0.416040 0.212029 -4.982208
v 0.096943 -0.053633 -5.041732
v -0.409703 0.960967 -3.685272
v -0.470578 -0.247896 -3.678069
v -0.402164 0.973473 -2.361992
v -0.585311 -0.083283 -2.242051
v 0.000000 1.073810 -4.389171
v 0.000000 -0.236434 -4.375024
v -0.399633 -0.101821 -4.375024
v -0.338759 0.877903 -4.378366
v 0.000000 -0.382508 -3.678069
v 0.000000 1.169381 -2.372797
v 0.000000 -0.411738 -2.354788
v 0.000000 1.156875 -3.696077
v 0.000000 0.952323 -5.091058
v 0.000000 -0.083694 -5.080215
v -0.330641 0.050918 -5.080215
v -0.283934 0.771010 -5.083720
v 0.000000 0.825060 -5.679140
v 0.000000 0.031234 -5.670832
v -0.258806 0.165846 -5.670832
v -0.242124 0.669821 -5.677450
v 0.000000 0.713776 -6.179390
v 0.000000 0.105139 -6.173039
v -0.190047 0.239751 -6.173039
v -0.181528 0.595476 -6.177434
v 0.000000 0.610005 -6.615949
v 0.000000 0.199778 -6.611669
v -0.087106 0.299745 -6.611900
v -0.129101 0.523802 -6.610222
v 0.000000 0.531998 -6.927522
v 0.000000 0.327538 -6.925324
v -0.197722 0.345971 -6.925522
v -0.093590 0.472288 -6.918965
v 0.000000 0.466541 -7.183929
v 0.000000 0.343706 -7.182138
v -0.669205 0.343706 -7.182138
v -0.083618 0.453976 -7.173124
v 0.000000 0.405614 -7.502945
v 0.000000 0.339056 -7.501154
v -1.069179 0.339056 -7.501154
v -0.028334 0.405614 -7.492140
v 0.000000 0.413435 -7.591293
v 0.000000 0.334312 -7.589503
v -1.104779 0.334312 -7.568562
v -0.012337 0.413435 -7.587557
v -0.409703 0.998485 -3.023632
v -0.500733 -0.304172 -3.016428
v 0.000000 -0.436769 -3.041002
v 0.000000 1.752977 -3.291106
v -0.370381 0.856266 -1.535257
v -0.529766 -0.077840 -1.620156
v 0.000000 1.052174 -1.546062
v 0.000000 -0.346590 -1.530741
v -0.341309 0.747938 -0.984207
v -0.499111 -0.059524 -1.318249
v 0.000000 0.943846 -0.995012
v 0.000000 -0.301064 -0.982244
v -0.320950 0.651431 -0.640717
v -0.396367 -0.096222 -0.638754
v 0.000000 0.847339 -0.651522
v 0.000000 -0.230834 -0.638754
v -0.227879 0.545888 -0.218546
v -0.266939 0.036460 -0.216583
v 0.000000 0.741796 -0.229351
v 0.000000 -0.098152 -0.216583
v -0.160341 0.497311 -0.077674
v -0.202320 0.082374 -0.075712
v 0.000000 0.647441 -0.088479
v 0.000000 -0.029669 -0.075712
v -0.089849 0.415386 0.063128
v -0.132574 0.122758 0.069688
v 0.000000 0.465647 0.059055
v 0.000000 0.064249 0.068846
v -0.047516 0.378633 0.145630
v -0.088736 0.172600 0.152001
v 0.000000 0.391198 0.145731
v 0.000000 0.129651 0.152001
v -0.034492 0.297204 0.202822
v -0.066879 0.233649 0.203562
v 0.000000 0.308666 0.220704
v 0.000000 0.233649 0.219316
v -0.683352 0.242023 -3.685375
v -0.646201 0.001197 -2.244328
v -0.579840 0.295135 -4.380763
v -0.442094 0.336621 -5.084614
v -0.312361 0.353291 -5.674202
v -0.218272 0.352065 -6.175616
v -0.150748 0.366208 -6.613405
v -0.214609 0.410488 -6.926216
v -0.690917 0.393541 -7.182865
v -1.090891 0.366058 -7.501881
v -1.126491 0.366413 -7.569288
v -0.736123 0.223799 -3.023735
v -0.617786 0.015669 -1.627229
v -0.570002 0.010975 -1.319353
v -0.587327 0.206583 -0.643934
v -0.379506 0.242617 -0.221763
v -0.300126 0.245036 -0.080891
v -0.182343 0.224547 0.067399
v -0.120461 0.235761 0.149457
v -0.083254 0.262035 0.202759
v 0.000000 0.262035 0.229420
v -0.110214 0.329438 -6.768698
v -0.103083 0.506953 -6.766881
v 0.000000 0.263658 -6.768497
v 0.000000 0.571002 -6.771736
v -0.153361 0.388348 -6.769810
v -0.911409 0.341381 -7.341646
v -0.055976 0.429795 -7.332632
v 0.000000 0.436077 -7.343437
v 0.000000 0.341381 -7.341646
v -0.933121 0.379800 -7.342373
v -0.010429 0.334312 -7.596071
v -1.119612 0.334312 -7.613933
v -0.070798 0.413435 -7.648546
v -1.141324 0.366413 -7.614660
v -0.068890 0.334312 -7.657060
v -1.138226 0.334312 -7.701071
v -0.162124 0.413435 -7.713696
v -1.159938 0.366413 -7.701798
v -0.160216 0.334312 -7.722210
v -0.661031 0.389924 -7.655046
v -0.649221 0.334312 -7.658939
v -0.901759 0.378168 -7.650500
v -0.884998 0.334312 -7.652083
v -1.119379 0.334312 -7.772271
v -1.141091 0.366413 -7.772997
v -1.065448 0.378168 -7.700061
v -1.048688 0.334312 -7.701644
v -0.416934 0.334312 -7.688829
v -0.423793 0.401679 -7.682625
v -0.297301 0.334312 -7.713374
v -0.301684 0.407557 -7.706014
v -0.049742 1.174612 -3.031979
v -0.042295 1.148777 -2.371660
v -0.043088 1.136271 -3.694941
v -0.035189 1.508985 -3.059197
v -0.018698 1.750408 -3.141448
v -0.029055 1.736871 -3.281463
v 0.000000 1.763086 -3.134078
v -0.020453 1.514845 -3.024880
v 0.000000 1.535841 -3.015148
v 0.000000 1.524668 -3.323217
v -0.033019 1.166697 -3.412393
v -0.036229 1.504480 -3.311212
v 0.000000 1.901847 -3.302404
v -0.034307 1.180311 -2.883380
v -0.016855 1.894989 -3.296287
v -0.017911 1.902429 -3.238751
v 0.000000 1.914548 -3.231984
v 0.000000 1.189390 -2.879815
v 0.000000 1.181791 -3.416630
v -0.020150 1.868845 -3.217876
v 0.000000 1.882054 -3.210980
v 0.000000 1.879885 -3.306301
v -0.020799 1.866911 -3.297132
v -0.025263 1.868327 -3.239112
v -0.017606 1.905080 -3.257836
v -0.022109 1.748070 -3.177757
v -0.768791 0.229726 -2.362094
v -0.503246 -0.277125 -2.354788
v -0.468950 -0.211978 -1.530741
v -0.644043 0.203999 -0.987424
v -0.422543 -0.166451 -0.982244
v -0.721931 0.220892 -1.536957
v -1.345987 -0.335090 -2.469636
v -1.285098 -0.366089 -2.467358
v -1.495304 -0.364092 -2.413442
v -1.618912 -0.331502 -2.284597
v -1.548022 -0.357371 -2.283492
v -1.583324 -0.329779 -2.420516
v -1.127540 -0.175286 -1.523084
v -1.141454 -0.171990 -2.036786
v -1.056649 -0.224781 -1.521979
v -0.940592 -0.182150 -2.369896
v -0.879703 -0.241462 -2.367619
v -1.053433 -0.237640 -2.029713
v -1.430545 -0.244267 -1.856943
v -1.359655 -0.296875 -1.855838
v -1.143290 -0.251563 -2.419766
v -1.274368 -0.310543 -2.221578
v -1.362389 -0.240763 -2.228651
v -1.082400 -0.314604 -2.417489
v -0.628686 0.634254 -3.695021
v -0.629273 0.623013 -2.360496
v -0.535194 0.617326 -4.394051
v -0.411607 0.569582 -5.095148
v -0.315645 0.515493 -5.684927
v -0.224541 0.456449 -6.179301
v -0.159873 0.432786 -6.612105
v -0.154100 0.441388 -6.922590
v -0.387268 0.423759 -7.177995
v -0.559612 0.385836 -7.497010
v -0.569414 0.389924 -7.578423
v -0.633449 0.637117 -3.026145
v -0.593360 0.563992 -1.530872
v -0.546069 0.506161 -0.976983
v -0.498010 0.453575 -0.629116
v -0.246553 0.379711 -0.067709
v -0.152405 0.328305 0.077166
v -0.103918 0.319430 0.163889
v -0.058872 0.283466 0.202844
v 0.000000 0.285351 0.225062
v -0.156252 0.450395 -6.765219
v -0.494549 0.404797 -7.337502
v -0.606061 0.389924 -7.631603
v -0.395051 0.568627 -0.635862
v -0.525210 0.378359 -0.633629
v -0.537199 0.496455 -0.912779
v -0.505383 0.329044 -0.553213
v -0.357595 0.578635 -0.573228
v -0.511338 0.524537 -0.911776
v -0.543942 0.475675 -0.913521
v -0.316375 0.485367 -0.325445
v -0.561521 0.277947 -0.639653
v -0.369535 0.272994 -0.219455
v -0.599679 0.251584 -0.816531
v -0.465073 0.277195 -0.429742
v -0.070217 0.224326 0.195687
v -0.177454 0.241491 0.068994
v -0.118558 0.231972 0.149610
v -0.129841 0.234061 0.137019
v -0.295078 0.257725 -0.079649
v 0.000000 0.221690 0.211575
v -0.450232 -0.193615 -1.309509
v -0.274949 -0.338192 -2.354788
v -0.312677 -0.256836 -1.530741
v -0.241016 -0.372947 -3.029174
v -0.181860 -0.330486 -3.678069
v -0.378255 0.172973 -5.082094
v -0.555069 0.240571 -4.379974
v -0.455235 -0.216306 -3.828792
v -0.583292 0.181205 -4.077393
v -0.435208 -0.065592 -4.252747
v -0.381998 -0.164832 -4.137995
v -0.366665 0.143263 -5.081637
v -0.442884 -0.006549 -4.376401
v -0.203284 -0.236479 -4.083291
v -0.148233 -0.186503 -4.375024
v -0.562012 0.064532 -3.927068
v -0.055810 -0.060972 -5.080216
v -0.016580 0.702971 -6.179211
v -0.035574 0.802251 -5.678892
v -0.035288 1.159840 -3.476066
v -0.110958 1.103818 -3.693151
v -0.057946 0.915320 -5.089560
v -0.084638 1.024864 -4.386471
v -0.074388 1.142375 -3.352929
v -0.150379 1.108716 -3.295031
v -0.215514 1.078113 -3.273319
v -0.266175 1.051941 -3.295031
v -0.371115 0.997911 -3.360166
v -0.371115 0.995039 -3.410826
v -0.197421 1.070762 -3.544716
v -0.139523 1.095866 -3.591758
v 0.000000 1.172170 -3.524531
v -0.013404 1.167712 -3.503726
v -0.348583 0.412386 -0.264794
v -0.325840 0.406117 -0.209344
v -0.396641 0.352439 -0.328645
v -0.348888 0.335898 -0.214677
v 0.000000 1.914019 -3.281100
v -0.017226 1.902943 -3.276173
v 0.000000 1.917163 -3.261974
v -0.402138 0.204733 -5.033429
v -0.361650 0.110798 -5.036016
v -0.366766 0.096514 -4.979512
v -0.416040 0.212029 -4.982208
v -0.096943 -0.053633 -5.041732
vt 0.476426 0.500000
vt 0.375000 0.500000
vt 0.375000 0.500000
vt 0.400257 0.500000
vt 0.425514 0.500000
vt 0.462484 0.500000
vt 0.476426 0.500000
vt 0.375000 0.500000
vt 0.296365 0.500000
vt 0.283863 0.500000
vt 0.271099 0.500000
vt 0.375000 0.500000
vt 0.550713 0.625000
vt 0.625000 0.625000
vt 0.625000 0.750000
vt 0.550713 0.750000
vt 0.298308 0.500000
vt 0.426272 0.500000
vt 0.423149 0.500000
vt 0.418330 0.500000
vt 0.476426 0.500000
vt 0.721563 0.625000
vt 0.737988 0.656154
vt 0.736854 0.750000
vt 0.476426 0.500000
vt 0.375000 0.500000
vt 0.375000 0.500000
vt 0.476426 0.500000
vt 0.407783 0.500000
vt 0.250000 0.500000
vt 0.250000 0.500000
vt 0.250000 0.500000
vt 0.476426 0.500000
vt 0.371373 0.500000
vt 0.397539 0.500000
vt 0.476426 0.500000
vt 0.352412 0.500000
vt 0.476426 0.500000
vt 0.250000 0.500000
vt 0.750000 0.500000
vt 0.625000 0.500000
vt 0.625000 0.500000
vt 0.750000 0.500000
vt 0.250000 0.500000
vt 0.250000 0.500000
vt 0.750000 0.500000
vt 0.625000 0.500000
vt 0.750000 0.500000
vt 0.625000 0.500000
vt 0.625000 0.500000
vt 0.750000 0.500000
vt 0.375000 0.500000
vt 0.476426 0.500000
vt 0.250000 0.500000
vt 0.375000 0.500000
vt 0.250000 0.500000
vt 0.250000 0.500000
vt 0.252990 0.500000
vt 0.375000 0.500000
vt 0.476426 0.500000
vt 0.375000 0.500000
vt 0.476426 0.500000
vt 0.250000 0.500000
vt 0.625000 0.500000
vt 0.750000 0.500000
vt 0.476426 0.500000
vt 0.625000 0.500000
vt 0.716147 0.500000
vt 0.706876 0.514328
vt 0.688920 0.522845
vt 0.636319 0.551038
vt 0.636241 0.560598
vt 0.666354 0.570359
vt 0.680774 0.573003
vt 0.700165 0.565310
vt 0.724419 0.546123
vt 0.739286 0.520521
vt 0.739993 0.526490
vt 0.550713 0.500000
vt 0.625000 0.750000
vt 0.750000 0.750000
vt 0.750000 0.750000
vt 0.625000 0.750000
vt 0.550713 0.750000
vt 0.750000 0.750000
vt 0.550713 0.750000
vt 0.750000 0.750000
vt 0.625000 0.750000
vt 0.593910 0.750000
vt 0.560158 0.750000
vt 0.550713 0.750000
vt 0.550713 0.750000
vt 0.625000 0.750000
vt 0.625000 0.750000
vt 0.550713 0.750000
vt 0.750000 0.750000
vt 0.750000 0.750000
vt 0.750000 0.750000
vt 0.625000 0.750000
vt 0.750000 0.750000
vt 0.625000 0.750000
vt 0.550713 0.750000
vt 0.550713 0.750000
vt 0.550713 0.750000
vt 0.625000 0.750000
vt 0.625000 0.875000
vt 0.550713 0.875000
vt 0.750000 0.750000
vt 0.375000 0.750000
vt 0.476426 0.750000
vt 0.476426 0.875000
vt 0.375000 0.875000
vt 0.476426 0.625000
vt 0.375000 0.625000
vt 0.550713 0.500000
vt 0.550713 0.500000
vt 0.550713 0.500000
vt 0.550713 0.500000
vt 0.550713 0.500000
vt 0.550713 0.500000
vt 0.550713 0.500000
vt 0.550713 0.500000
vt 0.550713 0.500000
vt 0.550713 0.500000
vt 0.550713 0.500000
vt 0.476426 0.750000
vt 0.375000 0.750000
vt 0.750000 0.500000
vt 0.625000 0.500000
vt 0.000000 0.000000
vt 0.000000 0.000000
vt 0.000000 0.000000
vt 0.000000 0.000000
vt 0.252990 0.500000
vt 0.375000 0.500000
vt 0.476426 0.500000
vt 0.550713 0.500000
vt 0.000000 0.000000
vt 0.000000 0.000000
vt 0.625000 0.500000
vt 0.476426 0.500000
vt 0.513569 0.500000
vt 0.550713 0.500000
vt 0.587856 0.500000
vt 0.606428 0.500000
vt 0.625000 0.500000
vt 0.375000 0.500000
vt 0.252990 0.500000
vt 0.268241 0.500000
vt 0.283493 0.500000
vt 0.313995 0.500000
vt 0.344498 0.500000
vt 0.344498 0.500000
vt 0.375000 0.500000
vt 0.476426 0.500000
vt 0.513569 0.500000
vt 0.736854 0.500000
vt 0.736854 0.500000
vt 0.736854 0.685170
vt 0.736854 0.625000
vt 0.750000 0.750000
vt 0.736854 0.750000
vt 0.736854 0.750000
vt 0.750000 0.750000
vt 0.750000 0.500000
vt 0.750000 0.500000
vt 0.744407 0.750000
vt 0.729208 0.625000
vt 0.736854 0.750000
vt 0.736854 0.683013
vt 0.736854 0.677686
vt 0.736854 0.750000
vt 0.750000 0.750000
vt 0.744709 0.493261
vt 0.750000 0.500000
vt 0.750000 0.750000
vt 0.750000 0.750000
vt 0.736854 0.500000
vt 0.750000 0.500000
vt 0.750000 0.500000
vt 0.736854 0.500000
vt 0.750000 0.649365
vt 0.736854 0.587792
vt 0.449941 0.750000
vt 0.446154 0.750000
vt 0.446154 0.750000
vt 0.449941 0.750000
vt 0.451828 0.750000
vt 0.399723 0.750000
vt 0.402980 0.750000
vt 0.375000 0.750000
vt 0.405475 0.750000
vt 0.375000 0.750000
vt 0.446154 0.750000
vt 0.449941 0.750000
vt 0.476426 0.750000
vt 0.476426 0.750000
vt 0.399723 0.750000
vt 0.451828 0.750000
vt 0.402980 0.750000
vt 0.405475 0.750000
vt 0.405475 0.750000
vt 0.399723 0.750000
vt 0.451828 0.750000
vt 0.402980 0.750000
vt 0.399723 0.750000
vt 0.402980 0.750000
vt 0.405475 0.750000
vt 0.449941 0.750000
vt 0.451828 0.750000
vt 0.446154 0.750000
vt 0.625000 0.500000
vt 0.625000 0.500000
vt 0.625000 0.500000
vt 0.625000 0.500000
vt 0.476426 0.750000
vt 0.550713 0.750000
vt 0.576460 0.750000
vt 0.602206 0.750000
vt 0.490227 0.750000
vt 0.494058 0.750000
vt 0.497890 0.750000
vt 0.528090 0.750000
vt 0.524183 0.750000
vt 0.537448 0.750000
vt 0.518808 0.750000
vt 0.487158 0.750000
vt 0.545325 0.750000
vt 0.375000 0.750000
vt 0.470341 0.750000
vt 0.483425 0.750000
vt 0.250000 0.750000
vt 0.250000 0.750000
vt 0.476426 0.750000
vt 0.488557 0.750000
vt 0.333345 0.750000
vt 0.318294 0.750000
vt 0.310166 0.622592
vt 0.369129 0.500000
vt 0.335683 0.500000
vt 0.406907 0.500000
vt 0.406253 0.500000
vt 0.399343 0.500000
vt 0.387171 0.500000
vt 0.731635 0.500000
vt 0.724490 0.500000
vt 0.738583 0.500000
vt 0.718769 0.500000
vt 0.744643 0.510260
vt 0.750000 0.500000
vt 0.750000 0.576742
vt 0.476426 0.500000
vt 0.476426 0.500000
vt 0.462484 0.500000
vt 0.425514 0.500000
vt 0.400257 0.500000
vt 0.375000 0.500000
vt 0.375000 0.500000
vt 0.375000 0.500000
vt 0.375000 0.500000
vt 0.271099 0.500000
vt 0.283863 0.500000
vt 0.296365 0.500000
vt 0.550713 0.625000
vt 0.550713 0.750000
vt 0.625000 0.750000
vt 0.625000 0.625000
vt 0.298308 0.500000
vt 0.476426 0.500000
vt 0.418330 0.500000
vt 0.423149 0.500000
vt 0.426272 0.500000
vt 0.736854 0.750000
vt 0.737988 0.656154
vt 0.721563 0.625000
vt 0.476426 0.500000
vt 0.476426 0.500000
vt 0.375000 0.500000
vt 0.375000 0.500000
vt 0.407783 0.500000
vt 0.476426 0.500000
vt 0.476426 0.500000
vt 0.397539 0.500000
vt 0.371373 0.500000
vt 0.476426 0.500000
vt 0.352412 0.500000
vt 0.625000 0.500000
vt 0.625000 0.500000
vt 0.625000 0.500000
vt 0.625000 0.500000
vt 0.625000 0.500000
vt 0.476426 0.500000
vt 0.375000 0.500000
vt 0.375000 0.500000
vt 0.375000 0.500000
vt 0.252990 0.500000
vt 0.476426 0.500000
vt 0.476426 0.500000
vt 0.375000 0.500000
vt 0.625000 0.500000
vt 0.476426 0.500000
vt 0.625000 0.500000
vt 0.739993 0.526490
vt 0.739286 0.520521
vt 0.724419 0.546123
vt 0.700165 0.565310
vt 0.680774 0.573003
vt 0.666354 0.570359
vt 0.636241 0.560598
vt 0.636319 0.551038
vt 0.688920 0.522845
vt 0.706876 0.514328
vt 0.716147 0.500000
vt 0.550713 0.500000
vt 0.625000 0.750000
vt 0.625000 0.750000
vt 0.550713 0.750000
vt 0.550713 0.750000
vt 0.625000 0.750000
vt 0.550713 0.750000
vt 0.560158 0.750000
vt 0.593910 0.750000
vt 0.550713 0.750000
vt 0.550713 0.750000
vt 0.625000 0.750000
vt 0.625000 0.750000
vt 0.625000 0.750000
vt 0.625000 0.750000
vt 0.550713 0.750000
vt 0.550713 0.750000
vt 0.550713 0.750000
vt 0.625000 0.750000
vt 0.375000 0.750000
vt 0.476426 0.750000
vt 0.375000 0.625000
vt 0.476426 0.625000
vt 0.550713 0.500000
vt 0.550713 0.500000
vt 0.550713 0.500000
vt 0.550713 0.500000
vt 0.550713 0.500000
vt 0.550713 0.500000
vt 0.550713 0.500000
vt 0.550713 0.500000
vt 0.550713 0.500000
vt 0.550713 0.500000
vt 0.550713 0.500000
vt 0.375000 0.750000
vt 0.476426 0.750000
vt 0.625000 0.500000
vt 0.000000 0.000000
vt 0.000000 0.000000
vt 0.000000 0.000000
vt 0.000000 0.000000
vt 0.375000 0.500000
vt 0.252990 0.500000
vt 0.476426 0.500000
vt 0.550713 0.500000
vt 0.000000 0.000000
vt 0.000000 0.000000
vt 0.625000 0.500000
vt 0.625000 0.500000
vt 0.606428 0.500000
vt 0.587856 0.500000
vt 0.550713 0.500000
vt 0.513569 0.500000
vt 0.476426 0.500000
vt 0.375000 0.500000
vt 0.344498 0.500000
vt 0.313995 0.500000
vt 0.283493 0.500000
vt 0.268241 0.500000
vt 0.252990 0.500000
vt 0.375000 0.500000
vt 0.344498 0.500000
vt 0.513569 0.500000
vt 0.476426 0.500000
vt 0.736854 0.500000
vt 0.736854 0.625000
vt 0.736854 0.685170
vt 0.736854 0.500000
vt 0.736854 0.750000
vt 0.736854 0.750000
vt 0.744407 0.750000
vt 0.729208 0.625000
vt 0.736854 0.750000
vt 0.736854 0.750000
vt 0.736854 0.677686
vt 0.736854 0.683013
vt 0.744709 0.493261
vt 0.736854 0.500000
vt 0.736854 0.500000
vt 0.736854 0.587792
vt 0.449941 0.750000
vt 0.449941 0.750000
vt 0.446154 0.750000
vt 0.446154 0.750000
vt 0.451828 0.750000
vt 0.399723 0.750000
vt 0.375000 0.750000
vt 0.402980 0.750000
vt 0.375000 0.750000
vt 0.405475 0.750000
vt 0.446154 0.750000
vt 0.476426 0.750000
vt 0.476426 0.750000
vt 0.449941 0.750000
vt 0.399723 0.750000
vt 0.402980 0.750000
vt 0.451828 0.750000
vt 0.405475 0.750000
vt 0.405475 0.750000
vt 0.399723 0.750000
vt 0.451828 0.750000
vt 0.402980 0.750000
vt 0.402980 0.750000
vt 0.399723 0.750000
vt 0.405475 0.750000
vt 0.451828 0.750000
vt 0.449941 0.750000
vt 0.446154 0.750000
vt 0.625000 0.500000
vt 0.625000 0.500000
vt 0.625000 0.500000
vt 0.625000 0.500000
vt 0.476426 0.750000
vt 0.550713 0.750000
vt 0.602206 0.750000
vt 0.576460 0.750000
vt 0.490227 0.750000
vt 0.518808 0.750000
vt 0.537448 0.750000
vt 0.524183 0.750000
vt 0.528090 0.750000
vt 0.497890 0.750000
vt 0.494058 0.750000
vt 0.545325 0.750000
vt 0.487158 0.750000
vt 0.375000 0.750000
vt 0.470341 0.750000
vt 0.483425 0.750000
vt 0.476426 0.750000
vt 0.488557 0.750000
vt 0.333345 0.750000
vt 0.318294 0.750000
vt 0.310166 0.622592
vt 0.369129 0.500000
vt 0.335683 0.500000
vt 0.399343 0.500000
vt 0.406253 0.500000
vt 0.406907 0.500000
vt 0.387171 0.500000
vt 0.731635 0.500000
vt 0.724490 0.500000
vt 0.738583 0.500000
vt 0.718769 0.500000
vt 0.744643 0.510260
vt 0.250000 0.620358
vt 0.250000 0.750000
vt 0.250000 0.750000
vt 0.250000 0.500000
vt 0.250000 0.750000
vt 0.375000 0.750000
vt 0.375000 0.750000
vt 0.250000 0.750000
vt 0.375000 0.750000
vt 0.250000 0.750000
vt 0.550713 0.750000
vt 0.375000 0.750000
vt 0.250000 0.750000
vt 0.375000 0.750000
vt 0.250000 0.750000
vt 0.250000 0.750000
vt 0.375000 0.750000
vt 0.476426 0.750000
vt 0.476426 0.750000
vt 0.476426 0.750000
vt 0.476426 0.750000
vt 0.250000 0.500000
vt 0.375000 0.750000
vt 0.375000 0.750000
vt 0.375000 0.750000
vt 0.550713 0.750000
vt 0.375000 0.750000
vt 0.375000 0.750000
vt 0.375000 0.750000
vt 0.476426 0.750000
vt 0.476426 0.750000
vt 0.476426 0.750000
vt 0.476426 0.750000
vt 0.750000 0.500000
vt 0.750000 0.500000
vt 0.750000 0.500000
vt 0.736854 0.500000
vt 0.750000 0.500000
vt 0.750000 0.500000
vt 0.736854 0.500000
vn 0.9016 -0.3989 -0.1671
vn 0.3402 -0.9142 -0.2202
vn 0.8446 0.5349 0.0232
vn 0.2681 -0.9371 -0.2237
vn 0.9083 -0.3688 -0.1972
vn 0.4423 0.8960 0.0395
vn 0.9493 -0.2624 -0.1730
vn 0.9252 -0.3259 -0.1944
vn 0.4072 -0.8916 -0.1983
vn 0.5078 -0.8466 -0.1593
vn 0.8441 -0.4054 0.3508
vn 0.8683 -0.4509 -0.2070
vn 0.6321 -0.7470 -0.2058
vn 0.3876 0.9084 -0.1566
vn 0.2597 -0.9504 -0.1712
vn 0.5308 0.8204 -0.2127
vn 0.1183 0.9770 -0.1776
vn 0.4687 -0.1474 0.8710
vn 0.0213 -0.9997 -0.0076
vn -0.0006 -0.9983 0.0581
vn 0.6383 -0.4092 0.6520
vn 0.0000 -0.9999 0.0146
vn -0.0313 0.9957 0.0875
vn 0.7404 -0.5339 0.4084
vn 0.4426 0.8952 -0.0531
vn 0.8406 0.5412 -0.0194
vn 0.4700 0.8637 0.1822
vn 0.8151 0.5716 0.0941
vn 0.4453 0.8853 0.1341
vn 0.7705 0.6203 0.1465
vn 0.4870 0.8370 0.2496
vn 0.7366 0.6408 0.2163
vn 0.6874 0.5290 0.4977
vn 0.5545 0.7909 0.2589
vn 0.4446 0.6042 0.6613
vn 0.5702 0.6694 0.4763
vn 0.3265 0.7503 0.5749
vn 0.6149 0.5168 0.5956
vn 0.6169 0.6112 0.4959
vn 0.4108 0.3689 0.8338
vn 0.3325 0.5757 0.7470
vn 0.2859 0.5186 0.8058
vn 0.2646 -0.2298 0.9366
vn 0.9119 -0.4026 -0.0798
vn 0.0395 0.9983 0.0419
vn 0.0453 0.9965 -0.0705
vn 0.1670 0.9719 0.1657
vn 0.9847 -0.0907 -0.1485
vn 0.8431 0.5067 0.1800
vn 0.9802 0.0573 -0.1894
vn 0.9826 -0.0449 -0.1800
vn 0.9754 0.1242 -0.1820
vn 0.8999 -0.4358 -0.0131
vn 0.9820 0.1322 -0.1353
vn 0.9956 -0.0923 -0.0151
vn 0.5394 0.8200 -0.1915
vn 0.6327 -0.7536 -0.1782
vn 0.7600 -0.6483 -0.0449
vn 0.0739 0.9970 -0.0213
vn 0.5274 -0.2461 0.8132
vn 0.1589 0.9707 -0.1801
vn 0.7189 -0.0915 0.6891
vn 0.0000 -1.0000 -0.0000
vn 0.8021 -0.5366 0.2622
vn 0.0425 0.9989 0.0222
vn 0.5778 -0.1011 0.8099
vn 0.0423 0.9976 0.0556
vn 0.8174 -0.5489 0.1746
vn 0.1248 0.9808 0.1497
vn 0.8070 -0.5506 -0.2136
vn -0.1233 0.0436 -0.9914
vn 0.0614 0.1009 -0.9930
vn 0.1957 0.0786 -0.9775
vn 0.1228 0.0627 -0.9904
vn 0.0251 0.0478 -0.9985
vn -0.2868 0.1438 -0.9471
vn -0.6460 0.3350 -0.6859
vn 0.9987 0.0467 0.0204
vn 0.6155 0.3593 0.7015
vn 0.3760 0.1291 -0.9176
vn 0.9842 0.0814 0.1572
vn 0.9700 0.2078 0.1266
vn 0.3622 0.9311 0.0443
vn 0.3428 0.2567 -0.9037
vn 0.3991 0.3523 0.8466
vn 0.5545 0.4588 0.6943
vn 0.4265 0.1186 -0.8967
vn 0.9995 0.0196 -0.0252
vn 0.5654 0.8205 0.0845
vn 0.2972 -0.1045 -0.9491
vn 0.5559 0.4486 0.6998
vn 0.9877 0.0636 0.1431
vn 0.9623 0.1443 0.2305
vn 0.9859 0.1520 -0.0704
vn 0.9996 0.0245 0.0134
vn 0.3221 0.9451 -0.0561
vn 0.8731 -0.4807 0.0812
vn 0.9121 -0.4028 0.0763
vn 0.9335 -0.3408 0.1120
vn 0.8568 -0.5031 0.1129
vn 0.8864 -0.4603 0.0481
vn 0.1947 -0.5592 -0.8059
vn 0.4589 -0.8194 0.3436
vn -0.1771 0.1826 -0.9671
vn 0.1620 0.9151 -0.3692
vn -0.1500 -0.9853 0.0823
vn -0.1183 -0.9696 0.2140
vn -0.3332 -0.9415 0.0501
vn -0.2733 -0.9615 0.0278
vn 0.3621 0.9278 -0.0898
vn -0.2797 0.2072 -0.9375
vn 0.2507 -0.2792 0.9269
vn 0.3443 0.9382 0.0350
vn -0.2315 -0.9574 0.1727
vn -0.2179 -0.9746 0.0517
vn 0.1998 0.9595 -0.1984
vn -0.1864 0.1494 -0.9711
vn 0.4830 -0.6582 0.5774
vn 0.2470 0.9690 -0.0077
vn 0.3480 -0.9323 -0.0981
vn 0.0421 0.9985 0.0351
vn 0.0722 0.9906 -0.1160
vn 0.8663 0.4929 -0.0817
vn 0.8060 0.5760 -0.1366
vn 0.8029 0.5729 -0.1648
vn 0.9107 0.3678 -0.1883
vn 0.8549 0.4922 -0.1641
vn 0.6028 0.7866 -0.1337
vn 0.9391 0.3038 -0.1605
vn 0.1656 0.9862 0.0030
vn 0.0444 0.9907 -0.1288
vn 0.0394 0.9971 0.0658
vn 0.7229 0.1897 0.6644
vn 0.3171 0.2599 0.9121
vn 0.9368 0.3256 0.1283
vn 0.9381 0.3409 0.0609
vn 0.9808 0.1910 -0.0402
vn 0.9576 0.2875 -0.0188
vn 0.7379 0.5920 0.3241
vn 0.8762 0.2678 0.4007
vn 0.9374 0.3068 0.1648
vn 0.6721 -0.3512 0.6519
vn 0.8313 0.2580 0.4923
vn 0.1966 -0.5598 0.8050
vn 0.8326 0.1327 0.5378
vn 0.7685 0.2127 0.6035
vn 0.7274 -0.3414 0.5952
vn 0.2646 -0.9606 0.0848
vn 0.2745 -0.9561 0.1026
vn 0.2560 -0.9659 0.0377
vn 0.2669 -0.9595 -0.0905
vn 0.3085 -0.9255 -0.2196
vn 0.9066 -0.3840 -0.1751
vn 0.8643 -0.4917 -0.1058
vn 0.5324 0.8274 -0.1787
vn 0.5342 0.8247 -0.1857
vn 0.5154 0.8420 -0.1592
vn 0.4631 0.8760 -0.1349
vn 0.5428 0.8163 -0.1976
vn 0.4244 0.9018 -0.0809
vn 0.8768 0.2660 0.4006
vn 0.5240 0.7642 -0.3760
vn 0.5712 0.8120 -0.1202
vn -0.9016 -0.3989 -0.1671
vn -0.3402 -0.9142 -0.2202
vn -0.8446 0.5349 0.0232
vn -0.2681 -0.9371 -0.2237
vn -0.9083 -0.3688 -0.1972
vn -0.4423 0.8960 0.0395
vn -0.9493 -0.2624 -0.1730
vn -0.9252 -0.3259 -0.1944
vn -0.4072 -0.8916 -0.1983
vn -0.5078 -0.8466 -0.1593
vn -0.8441 -0.4054 0.3508
vn -0.8683 -0.4509 -0.2070
vn -0.6321 -0.7470 -0.2058
vn -0.3876 0.9084 -0.1566
vn -0.2597 -0.9504 -0.1712
vn -0.5308 0.8204 -0.2127
vn -0.1183 0.9770 -0.1776
vn -0.4687 -0.1474 0.8710
vn -0.0213 -0.9997 -0.0076
vn 0.0006 -0.9983 0.0581
vn -0.6383 -0.4092 0.6520
vn 0.0313 0.9957 0.0875
vn -0.7404 -0.5339 0.4084
vn -0.4426 0.8952 -0.0531
vn -0.8406 0.5412 -0.0194
vn -0.4700 0.8637 0.1822
vn -0.8151 0.5716 0.0941
vn -0.4453 0.8853 0.1341
vn -0.7705 0.6203 0.1465
vn -0.4870 0.8370 0.2496
vn -0.7366 0.6408 0.2163
vn -0.6874 0.5290 0.4977
vn -0.5545 0.7909 0.2589
vn -0.4446 0.6042 0.6613
vn -0.5702 0.6694 0.4763
vn -0.3265 0.7503 0.5749
vn -0.6149 0.5168 0.5956
vn -0.6169 0.6112 0.4959
vn -0.4108 0.3689 0.8338
vn -0.3325 0.5757 0.7470
vn -0.2859 0.5186 0.8058
vn -0.2646 -0.2298 0.9366
vn -0.9119 -0.4026 -0.0798
vn -0.0395 0.9983 0.0419
vn -0.0453 0.9965 -0.0705
vn -0.1670 0.9719 0.1657
vn -0.9847 -0.0907 -0.1485
vn -0.8431 0.5067 0.1800
vn -0.9802 0.0573 -0.1894
vn -0.9826 -0.0449 -0.1800
vn -0.9754 0.1242 -0.1820
vn -0.8999 -0.4358 -0.0131
vn -0.9820 0.1322 -0.1353
vn -0.9956 -0.0923 -0.0151
vn -0.5394 0.8200 -0.1915
vn -0.6327 -0.7536 -0.1782
vn -0.7600 -0.6483 -0.0449
vn -0.0739 0.9970 -0.0213
vn -0.5274 -0.2461 0.8132
vn -0.1589 0.9707 -0.1801
vn -0.7189 -0.0915 0.6891
vn -0.8021 -0.5366 0.2622
vn -0.0425 0.9989 0.0222
vn -0.5778 -0.1011 0.8099
vn -0.0423 0.9976 0.0556
vn -0.8174 -0.5489 0.1746
vn -0.1248 0.9808 0.1497
vn -0.8070 -0.5506 -0.2136
vn 0.1233 0.0436 -0.9914
vn -0.0614 0.1009 -0.9930
vn -0.1957 0.0786 -0.9775
vn -0.1228 0.0627 -0.9904
vn -0.0251 0.0478 -0.9985
vn 0.2868 0.1438 -0.9471
vn 0.6460 0.3350 -0.6859
vn -0.9987 0.0467 0.0204
vn -0.6155 0.3593 0.7015
vn -0.3760 0.1291 -0.9176
vn -0.9842 0.0814 0.1572
vn -0.9700 0.2078 0.1266
vn -0.3622 0.9311 0.0443
vn -0.3428 0.2567 -0.9037
vn -0.3991 0.3523 0.8466
vn -0.5545 0.4588 0.6943
vn -0.4265 0.1186 -0.8967
vn -0.9995 0.0196 -0.0252
vn -0.5654 0.8205 0.0845
vn -0.2972 -0.1045 -0.9491
vn -0.5559 0.4486 0.6998
vn -0.9877 0.0636 0.1431
vn -0.9623 0.1443 0.2305
vn -0.9859 0.1520 -0.0704
vn -0.9996 0.0245 0.0134
vn -0.3221 0.9451 -0.0561
vn -0.8731 -0.4807 0.0812
vn -0.9121 -0.4028 0.0763
vn -0.9335 -0.3408 0.1120
vn -0.8568 -0.5031 0.1129
vn -0.8864 -0.4603 0.0481
vn -0.1947 -0.5592 -0.8059
vn -0.4589 -0.8194 0.3436
vn 0.1771 0.1826 -0.9671
vn -0.1620 0.9151 -0.3692
vn 0.1500 -0.9853 0.0823
vn 0.1183 -0.9696 0.2140
vn 0.3332 -0.9415 0.0501
vn 0.2733 -0.9615 0.0278
vn -0.3621 0.9278 -0.0898
vn 0.2797 0.2072 -0.9375
vn -0.2507 -0.2792 0.9269
vn -0.3443 0.9382 0.0350
vn 0.2315 -0.9574 0.1727
vn 0.2179 -0.9746 0.0517
vn -0.1998 0.9595 -0.1984
vn 0.1864 0.1494 -0.9711
vn -0.4830 -0.6582 0.5774
vn -0.2470 0.9690 -0.0077
vn -0.3480 -0.9323 -0.0981
vn -0.0421 0.9985 0.0351
vn -0.0722 0.9906 -0.1160
vn -0.8663 0.4929 -0.0817
vn -0.8060 0.5760 -0.1366
vn -0.8029 0.5729 -0.1648
vn -0.9107 0.3678 -0.1883
vn -0.8549 0.4922 -0.1641
vn -0.6028 0.7866 -0.1337
vn -0.9391 0.3038 -0.1605
vn -0.1656 0.9862 0.0030
vn -0.0444 0.9907 -0.1288
vn -0.0394 0.9971 0.0658
vn -0.7229 0.1897 0.6644
vn -0.3171 0.2599 0.9121
vn -0.9368 0.3256 0.1283
vn -0.9381 0.3409 0.0609
vn -0.9808 0.1910 -0.0402
vn -0.9576 0.2875 -0.0188
vn -0.7379 0.5920 0.3241
vn -0.8762 0.2678 0.4007
vn -0.9374 0.3068 0.1648
vn -0.6721 -0.3512 0.6519
vn -0.8313 0.2580 0.4923
vn -0.1966 -0.5598 0.8050
vn -0.8326 0.1327 0.5378
vn -0.7685 0.2127 0.6035
vn -0.7274 -0.3414 0.5952
vn -0.2646 -0.9606 0.0848
vn -0.2745 -0.9561 0.1026
vn -0.2560 -0.9659 0.0377
vn -0.2669 -0.9595 -0.0905
vn -0.3085 -0.9255 -0.2196
vn -0.9066 -0.3840 -0.1751
vn -0.8643 -0.4917 -0.1058
vn -0.5324 0.8274 -0.1787
vn -0.5342 0.8247 -0.1857
vn -0.5154 0.8420 -0.1592
vn -0.4631 0.8760 -0.1349
vn -0.5428 0.8163 -0.1976
vn -0.4244 0.9018 -0.0809
vn -0.8768 0.2660 0.4006
vn -0.5240 0.7642 -0.3760
vn -0.5712 0.8120 -0.1202
vn 0.2563 -0.9659 0.0361
vn 0.2669 -0.9605 0.0793
vn 0.2655 -0.9604 -0.0844
vn 0.3059 -0.9304 0.2019
vn 0.2889 -0.9531 0.0904
vn 0.3551 -0.8749 0.3294
vn 0.7005 0.6219 0.3500
vn 0.4217 -0.8023 0.4225
vn 0.4014 -0.7905 0.4627
vn 0.2370 -0.5464 0.8033
vn 0.3325 -0.7303 0.5967
vn 0.6804 -0.3151 0.6616
vn 0.7274 -0.3420 0.5949
vn 0.7568 -0.4079 0.5108
vn 0.7881 -0.4617 0.4071
vn 0.7730 -0.4278 0.4685
vn 0.8433 -0.5142 0.1563
vn 0.8316 -0.5504 0.0741
vn 0.7974 0.1757 0.5773
vn 0.7569 0.1941 0.6241
vn 0.8712 0.2801 0.4031
vn 0.8430 0.2549 0.4737
vn 0.9329 0.3266 0.1519
vn 0.8736 0.2885 0.3920
vn 0.7243 0.6599 0.1998
vn 0.9312 0.3197 0.1752
vn 0.2853 -0.9361 -0.2058
vn 0.9364 -0.3344 0.1070
vn 0.8972 -0.4011 -0.1849
vn 0.8778 -0.4412 -0.1867
vn 0.3329 -0.9206 -0.2043
vn -0.2563 -0.9659 0.0361
vn -0.2669 -0.9605 0.0793
vn -0.2655 -0.9604 -0.0844
vn -0.3059 -0.9304 0.2019
vn -0.2889 -0.9531 0.0904
vn -0.3551 -0.8749 0.3294
vn -0.7005 0.6219 0.3500
vn -0.4217 -0.8023 0.4225
vn -0.4014 -0.7905 0.4627
vn -0.2370 -0.5464 0.8033
vn -0.3325 -0.7303 0.5967
vn -0.6804 -0.3151 0.6616
vn -0.7274 -0.3420 0.5949
vn -0.7568 -0.4079 0.5108
vn -0.7881 -0.4617 0.4071
vn -0.7730 -0.4278 0.4685
vn -0.8433 -0.5142 0.1563
vn -0.8316 -0.5504 0.0741
vn -0.7974 0.1757 0.5773
vn -0.7569 0.1941 0.6241
vn -0.8712 0.2801 0.4031
vn -0.8430 0.2549 0.4737
vn -0.9329 0.3266 0.1519
vn -0.8736 0.2885 0.3920
vn -0.7243 0.6599 0.1998
vn -0.9312 0.3197 0.1752
vn -0.2853 -0.9361 -0.2058
vn -0.9364 -0.3344 0.1070
vn -0.8972 -0.4011 -0.1849
vn -0.8778 -0.4412 -0.1867
vn -0.3329 -0.9206 -0.2043
vn 0.5325 0.8273 -0.1790
vn 0.4620 0.8798 -0.1116
vn 0.5137 0.8450 -0.1487
vn 0.5370 0.8207 -0.1951
vn 0.5336 0.8255 -0.1839
vn 0.4292 0.8996 -0.0810
vn 0.4455 0.8936 -0.0546
vn -0.5325 0.8273 -0.1790
vn -0.4620 0.8798 -0.1116
vn -0.5137 0.8450 -0.1487
vn -0.5370 0.8207 -0.1951
vn -0.5336 0.8255 -0.1839
vn -0.4292 0.8996 -0.0810
vn -0.4455 0.8936 -0.0546
usemtl Material
s off
f 41/1/1 2/2/1 175/3/1 183/4/1 176/5/1 174/6/1 43/7/1
f 5/8/2 182/9/2 209/10/2 184/11/2 7/12/2
f 140/13/3 23/14/3 3/15/3 130/16/3
f 2/2/4 172/17/4 175/3/4
f 43/7/5 174/6/5 208/18/5 205/19/5 173/20/5 44/21/5
f 23/14/6 88/22/6 97/23/6 89/24/6 3/15/6
f 45/25/7 9/26/7 11/27/7 46/28/7
f 44/21/8 173/20/8 179/29/8 7/12/8 9/26/8 45/25/8
f 7/12/9 184/11/9 223/30/9 227/31/9 9/26/9
f 9/26/10 227/31/10 231/32/10 11/27/10
f 63/33/11 61/34/11 15/35/11 48/36/11
f 46/28/12 11/27/12 13/37/12 47/38/12
f 11/27/13 231/32/13 235/39/13 13/37/13
f 238/40/14 16/41/14 18/42/14 242/43/14
f 61/34/15 313/44/15 239/45/15 15/35/15
f 314/46/16 62/47/16 16/41/16 238/40/16
f 318/48/17 65/49/17 20/50/17 246/51/17
f 48/36/18 15/35/18 17/52/18 49/53/18
f 15/35/19 239/45/19 243/54/19 17/52/19
f 19/55/20 247/56/20 251/57/20 67/58/20 21/59/20
f 66/60/21 64/61/21 19/55/21 50/62/21
f 64/61/22 319/63/22 247/56/22 19/55/22
f 246/51/23 20/50/23 22/64/23 250/65/23
f 50/62/24 19/55/24 21/59/24 51/66/24
f 1/67/25 188/68/25 198/69/25 197/70/25 196/71/25 195/72/25 194/73/25 193/74/25 192/75/25 191/76/25 187/77/25 95/78/25 88/22/25 23/14/25
f 129/79/26 1/67/26 23/14/26 140/13/26
f 25/80/27 260/81/27 264/82/27 27/83/27
f 130/16/28 3/15/28 25/80/28 141/84/28
f 3/15/29 89/24/29 219/85/29 260/81/29 25/80/29
f 141/84/30 25/80/30 27/83/30 142/86/30
f 27/83/31 264/82/31 268/87/31 29/88/31
f 142/86/32 27/83/32 29/88/32 151/89/32 156/90/32 153/91/32
f 201/92/33 31/93/33 33/94/33 144/95/33
f 29/88/34 268/87/34 272/96/34 31/93/34
f 33/94/35 276/97/35 280/98/35 35/99/35
f 31/93/36 272/96/36 276/97/36 33/94/36
f 35/99/37 280/98/37 284/100/37 37/101/37
f 144/95/38 33/94/38 35/99/38 145/102/38
f 145/102/39 35/99/39 37/101/39 146/103/39
f 147/104/40 39/105/40 288/106/40 411/107/40
f 37/101/41 284/100/41 288/108/41 39/105/41
f 146/103/42 37/101/42 39/105/42 147/104/42
f 40/109/43 60/110/43 310/111/43 289/112/43
f 2/2/44 41/1/44 52/113/44 24/114/44
f 138/115/45 50/62/45 51/66/45 139/116/45
f 149/117/46 66/60/46 50/62/46 138/115/46
f 136/118/47 48/36/47 49/53/47 137/119/47
f 134/120/48 46/28/48 47/38/48 135/121/48
f 148/122/49 63/33/49 48/36/49 136/118/49
f 132/123/50 44/21/50 45/25/50 133/124/50
f 133/124/51 45/25/51 46/28/51 134/120/51
f 131/125/52 43/7/52 44/21/52 132/123/52
f 24/114/53 52/113/53 105/126/53 106/127/53
f 129/79/54 41/1/54 43/7/54 131/125/54
f 135/121/55 47/38/55 63/33/55 148/122/55
f 234/128/56 14/129/56 62/47/56 314/46/56
f 13/37/57 235/39/57 313/44/57 61/34/57
f 47/38/58 13/37/58 61/34/58 63/33/58
f 137/119/59 49/53/59 66/60/59 149/117/59
f 17/52/22 243/54/22 319/63/22 64/61/22
f 49/53/60 17/52/60 64/61/60 66/60/60
f 242/43/61 18/42/61 65/49/61 318/48/61
f 22/130/62 67/131/62 71/132/62 69/133/62
f 21/59/63 67/58/63 71/134/63 68/135/63
f 51/66/64 21/59/64 68/135/64 70/136/64
f 139/116/65 51/66/65 70/136/65 150/137/65
f 69/133/66 71/132/66 75/138/66 73/139/66
f 69/140/67 150/137/67 70/136/67 74/141/67 78/142/67 76/143/67 85/144/67 87/145/67 73/146/67
f 70/136/68 68/135/68 72/147/68 74/141/68
f 68/135/63 71/134/63 75/148/63 86/149/63 84/150/63 77/151/63 79/152/63 72/147/63
f 72/147/63 79/152/63 83/153/63 80/154/63
f 78/142/69 74/141/69 81/155/69 82/156/69
f 74/141/70 72/147/70 80/154/70 81/155/70
f 67/131/71 251/57/71 250/65/71 22/130/71
f 86/149/72 75/138/72 73/146/72 87/145/72
f 87/145/73 85/144/73 84/150/73 86/149/73
f 85/144/74 76/143/74 77/151/74 84/150/74
f 79/152/75 77/151/75 76/143/75 78/142/75
f 79/152/76 78/142/76 82/156/76 83/153/76
f 81/155/77 80/154/77 83/153/77 82/156/77
f 96/157/78 93/158/78 104/159/78 91/160/78
f 350/161/79 94/162/79 92/163/79 348/164/79
f 96/157/80 351/165/80 257/166/80 93/158/80
f 97/167/81 88/168/81 91/160/81 94/162/81
f 100/169/82 102/170/82 103/171/82 99/172/82
f 219/85/83 89/24/83 97/167/83 359/173/83
f 95/174/84 360/175/84 351/165/84 96/157/84
f 359/173/85 97/167/85 94/162/85 350/161/85
f 362/176/86 100/169/86 99/172/86 358/177/86
f 101/178/87 363/179/87 354/180/87 98/181/87
f 91/160/88 88/168/88 95/174/88 96/157/88
f 99/172/89 103/171/89 472/182/89 358/177/89
f 93/158/90 257/166/90 363/179/90 101/178/90
f 348/164/91 92/163/91 100/169/91 362/176/91
f 92/163/92 104/159/92 102/170/92 100/169/92
f 91/160/93 104/159/93 92/163/93 94/162/93
f 103/171/94 102/170/94 101/178/94 98/181/94 204/183/94
f 102/170/95 104/159/95 93/158/95 101/178/95
f 127/184/96 123/185/96 114/186/96 116/187/96
f 42/188/97 4/189/97 106/127/97 105/126/97
f 4/189/98 26/190/98 107/191/98 106/127/98
f 26/190/99 28/192/99 168/193/99 107/191/99
f 54/194/100 53/195/100 110/196/100 108/197/100
f 53/195/101 42/188/101 105/126/101 110/196/101
f 112/198/102 111/199/102 116/187/102 113/200/102
f 123/185/103 124/201/103 115/202/103 114/186/103
f 128/203/104 125/204/104 111/199/104 112/198/104
f 125/204/105 127/184/105 116/187/105 111/199/105
f 124/201/106 126/205/106 113/200/106 115/202/106
f 126/205/107 128/203/107 112/198/107 113/200/107
f 26/190/108 4/189/108 121/206/108 122/207/108
f 28/192/109 26/190/109 122/207/109 119/208/109
f 42/188/110 53/195/110 118/209/110 120/210/110
f 4/189/111 42/188/111 120/210/111 121/206/111
f 54/194/112 28/192/112 119/208/112 117/211/112
f 53/195/113 54/194/113 117/211/113 118/209/113
f 122/207/114 121/206/114 128/203/114 126/205/114
f 119/208/115 122/207/115 126/205/115 124/201/115
f 120/210/116 118/209/116 127/184/116 125/204/116
f 121/206/117 120/210/117 125/204/117 128/203/117
f 117/211/118 119/208/118 124/201/118 123/185/118
f 118/209/119 117/211/119 123/185/119 127/184/119
f 113/200/120 116/187/120 114/186/120 115/202/120
f 22/64/121 139/116/121 150/137/121 69/140/121
f 18/42/122 137/119/122 149/117/122 65/49/122
f 14/129/123 135/121/123 148/122/123 62/47/123
f 1/67/124 129/79/124 131/125/124 6/212/124
f 6/212/125 131/125/125 132/123/125 8/213/125
f 10/214/126 133/124/126 134/120/126 12/215/126
f 8/213/127 132/123/127 133/124/127 10/214/127
f 62/47/128 148/122/128 136/118/128 16/41/128
f 12/215/129 134/120/129 135/121/129 14/129/129
f 16/41/130 136/118/130 137/119/130 18/42/130
f 65/49/131 149/117/131 138/115/131 20/50/131
f 20/50/132 138/115/132 139/116/132 22/64/132
f 59/216/133 146/103/133 147/104/133 60/110/133
f 60/110/134 147/104/134 411/107/134 310/111/134
f 110/196/135 141/84/135 142/86/135 108/197/135
f 105/126/136 130/16/136 141/84/136 110/196/136
f 41/1/137 129/79/137 140/13/137 52/113/137
f 52/113/138 140/13/138 130/16/138 105/126/138
f 200/217/139 158/218/139 155/219/139 151/89/139 29/88/139 31/93/139 201/92/139
f 160/220/140 162/221/140 159/222/140 152/223/140 154/224/140 202/225/140 203/226/140
f 159/222/141 161/227/141 108/197/141 142/86/141 153/91/141 157/228/141 152/223/141
f 163/229/142 165/230/142 59/216/142 60/110/142 40/109/142
f 167/231/143 160/220/143 203/226/143 201/92/143 144/95/143
f 432/232/144 163/229/144 40/109/144 289/233/144
f 166/234/145 164/235/145 145/102/145 146/103/145 59/216/145
f 164/235/146 167/231/146 144/95/146 145/102/146
f 165/230/147 166/234/147 59/216/147
f 170/236/148 169/237/148 106/127/148 107/191/148
f 168/193/149 170/236/149 107/191/149
f 169/237/150 171/238/150 24/114/150 106/127/150
f 171/238/151 172/17/151 2/2/151 24/114/151
f 178/239/152 181/240/152 182/9/152 5/8/152
f 179/29/153 206/241/153 207/242/153 180/243/153 5/8/153 7/12/153
f 180/243/154 177/244/154 178/239/154 5/8/154
f 186/245/155 189/246/155 8/213/155 10/214/155
f 185/247/156 186/245/156 10/214/156 12/215/156
f 189/246/157 190/248/157 6/212/157 8/213/157
f 190/248/158 188/68/158 1/67/158 6/212/158
f 234/128/159 185/247/159 12/215/159 14/129/159
f 187/77/160 199/249/160 464/250/160 360/175/160 95/78/160
f 202/225/161 200/217/161 201/92/161 203/226/161
f 470/251/162 204/183/162 98/181/162 354/180/162
f 472/182/163 103/171/163 204/183/163 470/251/163
f 290/252/164 292/253/164 439/254/164 441/255/164 448/256/164 440/257/164 211/258/164
f 216/259/165 224/260/165 449/261/165 477/262/165 447/263/165
f 403/264/166 393/265/166 212/266/166 254/267/166
f 211/258/167 440/257/167 437/268/167
f 292/253/168 293/269/168 438/270/168 473/271/168 476/272/168 439/254/168
f 254/267/169 212/266/169 343/273/169 355/274/169 342/275/169
f 294/276/170 295/277/170 232/278/170 228/279/170
f 293/269/171 294/276/171 228/279/171 224/260/171 444/280/171 438/270/171
f 224/260/172 228/279/172 227/31/172 223/30/172 449/261/172
f 228/279/173 232/278/173 231/32/173 227/31/173
f 315/281/174 297/282/174 240/283/174 311/284/174
f 295/277/175 296/285/175 236/286/175 232/278/175
f 232/278/176 236/286/176 235/39/176 231/32/176
f 238/40/177 242/43/177 245/287/177 241/288/177
f 311/284/178 240/283/178 239/45/178 313/44/178
f 314/46/179 238/40/179 241/288/179 312/289/179
f 318/48/180 246/51/180 249/290/180 317/291/180
f 297/282/181 298/292/181 244/293/181 240/283/181
f 240/283/182 244/293/182 243/54/182 239/45/182
f 248/294/183 252/295/183 321/296/183 251/57/183 247/56/183
f 320/297/184 299/298/184 248/294/184 316/299/184
f 316/299/22 248/294/22 247/56/22 319/63/22
f 246/51/185 250/65/185 253/300/185 249/290/185
f 299/298/186 300/301/186 252/295/186 248/294/186
f 210/302/187 254/267/187 342/275/187 352/303/187 452/304/187 456/305/187 457/306/187 458/307/187 459/308/187 460/309/187 461/310/187 462/311/187 463/312/187 453/313/187
f 392/314/188 403/264/188 254/267/188 210/302/188
f 258/315/189 262/316/189 264/82/189 260/81/189
f 393/265/190 404/317/190 258/315/190 212/266/190
f 212/266/191 258/315/191 260/81/191 219/85/191 343/273/191
f 404/317/192 405/318/192 262/316/192 258/315/192
f 262/316/193 266/319/193 268/87/193 264/82/193
f 405/318/194 417/320/194 420/321/194 415/322/194 266/319/194 262/316/194
f 467/323/195 407/324/195 274/325/195 270/326/195
f 266/319/196 270/326/196 272/96/196 268/87/196
f 274/325/197 278/327/197 280/98/197 276/97/197
f 270/326/198 274/325/198 276/97/198 272/96/198
f 278/327/199 282/328/199 284/100/199 280/98/199
f 407/324/200 408/329/200 278/327/200 274/325/200
f 408/329/201 409/330/201 282/328/201 278/327/201
f 410/331/202 411/107/202 288/106/202 286/332/202
f 282/328/203 286/332/203 288/108/203 284/100/203
f 409/330/204 410/331/204 286/332/204 282/328/204
f 287/333/205 289/112/205 310/111/205 309/334/205
f 211/258/206 255/335/206 301/336/206 290/252/206
f 401/337/207 402/338/207 300/301/207 299/298/207
f 413/339/208 401/337/208 299/298/208 320/297/208
f 399/340/209 400/341/209 298/292/209 297/282/209
f 397/342/210 398/343/210 296/285/210 295/277/210
f 412/344/211 399/340/211 297/282/211 315/281/211
f 395/345/212 396/346/212 294/276/212 293/269/212
f 396/346/213 397/342/213 295/277/213 294/276/213
f 394/347/214 395/345/214 293/269/214 292/253/214
f 255/335/215 369/348/215 368/349/215 301/336/215
f 392/314/216 394/347/216 292/253/216 290/252/216
f 398/343/217 412/344/217 315/281/217 296/285/217
f 234/128/218 314/46/218 312/289/218 237/350/218
f 236/286/219 311/284/219 313/44/219 235/39/219
f 296/285/220 315/281/220 311/284/220 236/286/220
f 400/341/221 413/339/221 320/297/221 298/292/221
f 244/293/22 316/299/22 319/63/22 243/54/22
f 298/292/222 320/297/222 316/299/222 244/293/222
f 242/43/223 318/48/223 317/291/223 245/287/223
f 253/351/224 323/352/224 325/353/224 321/354/224
f 252/295/63 322/355/63 325/356/63 321/296/63
f 300/301/225 324/357/225 322/355/225 252/295/225
f 402/338/226 414/358/226 324/357/226 300/301/226
f 323/352/227 327/359/227 329/360/227 325/353/227
f 323/361/228 327/362/228 341/363/228 339/364/228 330/365/228 332/366/228 328/367/228 324/357/228 414/358/228
f 324/357/229 328/367/229 326/368/229 322/355/229
f 322/355/63 326/368/63 333/369/63 331/370/63 338/371/63 340/372/63 329/373/63 325/356/63
f 326/368/63 334/374/63 337/375/63 333/369/63
f 332/366/230 336/376/230 335/377/230 328/367/230
f 328/367/231 335/377/231 334/374/231 326/368/231
f 321/354/232 253/351/232 250/65/232 251/57/232
f 340/372/233 341/363/233 327/362/233 329/360/233
f 341/363/234 340/372/234 338/371/234 339/364/234
f 339/364/235 338/371/235 331/370/235 330/365/235
f 333/369/236 332/366/236 330/365/236 331/370/236
f 333/369/237 337/375/237 336/376/237 332/366/237
f 335/377/238 336/376/238 337/375/238 334/374/238
f 353/378/239 345/379/239 367/380/239 347/381/239
f 350/161/240 348/164/240 346/382/240 349/383/240
f 353/378/241 347/381/241 257/166/241 351/165/241
f 355/384/242 349/383/242 345/379/242 342/385/242
f 361/386/243 357/387/243 366/388/243 365/389/243
f 219/85/244 359/173/244 355/384/244 343/273/244
f 352/390/245 353/378/245 351/165/245 360/175/245
f 359/173/246 350/161/246 349/383/246 355/384/246
f 362/176/247 358/177/247 357/387/247 361/386/247
f 364/391/248 356/392/248 354/180/248 363/179/248
f 345/379/249 353/378/249 352/390/249 342/385/249
f 357/387/250 358/177/250 472/182/250 366/388/250
f 347/381/251 364/391/251 363/179/251 257/166/251
f 348/164/252 362/176/252 361/386/252 346/382/252
f 346/382/253 361/386/253 365/389/253 367/380/253
f 345/379/254 349/383/254 346/382/254 367/380/254
f 366/388/255 471/393/255 356/392/255 364/391/255 365/389/255
f 365/389/256 364/391/256 347/381/256 367/380/256
f 390/394/257 379/395/257 377/396/257 386/397/257
f 291/398/258 368/349/258 369/348/258 213/399/258
f 213/399/259 369/348/259 370/400/259 259/401/259
f 259/401/260 370/400/260 433/402/260 263/403/260
f 303/404/261 371/405/261 373/406/261 302/407/261
f 302/407/262 373/406/262 368/349/262 291/398/262
f 375/408/263 376/409/263 379/395/263 374/410/263
f 386/397/264 377/396/264 378/411/264 387/412/264
f 391/413/265 375/408/265 374/410/265 388/414/265
f 388/414/266 374/410/266 379/395/266 390/394/266
f 387/412/267 378/411/267 376/409/267 389/415/267
f 389/415/268 376/409/268 375/408/268 391/413/268
f 259/401/269 385/416/269 384/417/269 213/399/269
f 263/403/270 382/418/270 385/416/270 259/401/270
f 291/398/271 383/419/271 381/420/271 302/407/271
f 213/399/272 384/417/272 383/419/272 291/398/272
f 303/404/273 380/421/273 382/418/273 263/403/273
f 302/407/274 381/420/274 380/421/274 303/404/274
f 385/416/275 389/415/275 391/413/275 384/417/275
f 382/418/276 387/412/276 389/415/276 385/416/276
f 383/419/277 388/414/277 390/394/277 381/420/277
f 384/417/278 391/413/278 388/414/278 383/419/278
f 380/421/279 386/397/279 387/412/279 382/418/279
f 381/420/280 390/394/280 386/397/280 380/421/280
f 376/409/281 378/411/281 377/396/281 379/395/281
f 253/300/282 323/361/282 414/358/282 402/338/282
f 245/287/283 317/291/283 413/339/283 400/341/283
f 237/350/284 312/289/284 412/344/284 398/343/284
f 210/302/285 217/422/285 394/347/285 392/314/285
f 217/422/286 225/423/286 395/345/286 394/347/286
f 229/424/287 233/425/287 397/342/287 396/346/287
f 225/423/288 229/424/288 396/346/288 395/345/288
f 312/289/289 241/288/289 399/340/289 412/344/289
f 233/425/290 237/350/290 398/343/290 397/342/290
f 241/288/291 245/287/291 400/341/291 399/340/291
f 317/291/292 249/290/292 401/337/292 413/339/292
f 249/290/293 253/300/293 402/338/293 401/337/293
f 308/426/294 309/334/294 410/331/294 409/330/294
f 309/334/295 310/111/295 411/107/295 410/331/295
f 373/406/296 371/405/296 405/318/296 404/317/296
f 368/349/297 373/406/297 404/317/297 393/265/297
f 290/252/298 301/336/298 403/264/298 392/314/298
f 301/336/299 368/349/299 393/265/299 403/264/299
f 466/427/300 467/323/300 270/326/300 266/319/300 415/322/300 419/428/300 422/429/300
f 424/430/301 469/431/301 468/432/301 418/433/301 416/434/301 423/435/301 426/436/301
f 423/435/302 416/434/302 421/437/302 417/320/302 405/318/302 371/405/302 425/438/302
f 427/439/303 287/333/303 309/334/303 308/426/303 429/440/303
f 431/441/304 407/324/304 467/323/304 469/431/304 424/430/304
f 432/232/305 289/233/305 287/333/305 427/439/305
f 430/442/306 308/426/306 409/330/306 408/329/306 428/443/306
f 428/443/307 408/329/307 407/324/307 431/441/307
f 429/440/308 308/426/308 430/442/308
f 435/444/309 370/400/309 369/348/309 434/445/309
f 433/402/310 370/400/310 435/444/310
f 434/445/311 369/348/311 255/335/311 436/446/311
f 436/446/312 255/335/312 211/258/312 437/268/312
f 443/447/313 216/259/313 447/263/313 446/448/313
f 444/280/314 224/260/314 216/259/314 445/449/314 475/450/314 474/451/314
f 445/449/315 216/259/315 443/447/315 442/452/315
f 451/453/316 229/424/316 225/423/316 454/454/316
f 450/455/317 233/425/317 229/424/317 451/453/317
f 454/454/318 225/423/318 217/422/318 455/456/318
f 455/456/319 217/422/319 210/302/319 453/313/319
f 234/128/320 237/350/320 233/425/320 450/455/320
f 452/304/321 352/303/321 360/175/321 464/250/321 465/457/321
f 468/432/322 469/431/322 467/323/322 466/427/322
f 470/251/323 354/180/323 356/392/323 471/393/323
f 472/182/324 470/251/324 471/393/324 366/388/324
usemtl Material.001
f 256/458/325 171/238/325 169/237/325 220/459/325
f 220/459/326 169/237/326 170/236/326 261/460/326
f 218/461/327 172/17/327 171/238/327 256/458/327
f 265/462/328 109/463/328 30/464/328 269/465/328
f 261/460/329 170/236/329 168/193/329 109/463/329 265/462/329
f 269/465/330 30/464/330 32/466/330 273/467/330
f 143/468/331 151/89/331 155/219/331 158/218/331 200/217/331
f 273/467/332 32/466/332 34/469/332 277/470/332
f 277/470/333 34/469/333 36/471/333 281/472/333
f 285/473/334 38/474/334 163/229/334 432/232/334
f 281/472/335 36/471/335 38/474/335 285/473/335
f 38/474/336 165/230/336 163/229/336
f 36/471/337 58/475/337 166/234/337 165/230/337 38/474/337
f 34/469/338 57/476/338 58/475/338 36/471/338
f 30/464/339 55/477/339 56/478/339 32/466/339
f 32/466/340 56/478/340 57/476/340 34/469/340
f 109/463/341 108/197/341 55/477/341 30/464/341
f 28/192/342 54/194/342 108/197/342 109/463/342
f 58/475/343 164/235/343 166/234/343
f 57/476/344 167/231/344 164/235/344 58/475/344
f 55/477/345 159/222/345 162/221/345 160/220/345 56/478/345
f 56/478/346 160/220/346 167/231/346 57/476/346
f 108/197/347 161/227/347 159/222/347 55/477/347
f 200/217/348 202/225/348 154/224/348 152/223/348 143/468/348
f 153/91/349 156/90/349 151/89/349 143/468/349
f 152/223/350 157/228/350 153/91/350 143/468/350
f 182/9/351 181/240/351 178/239/351 175/3/351 172/17/351 218/461/351 215/479/351
f 168/193/352 28/192/352 109/463/352
f 173/20/353 205/19/353 208/18/353 174/6/353 180/243/353 207/242/353 206/241/353 179/29/353
f 174/6/354 176/5/354 183/4/354 175/3/354 178/239/354 177/244/354 180/243/354
f 184/11/355 209/10/355 182/9/355 215/479/355 223/30/355
f 256/458/356 220/459/356 434/445/356 436/446/356
f 220/459/357 261/460/357 435/444/357 434/445/357
f 218/461/358 256/458/358 436/446/358 437/268/358
f 265/462/359 269/465/359 267/480/359 372/481/359
f 261/460/360 265/462/360 372/481/360 433/402/360 435/444/360
f 269/465/361 273/467/361 271/482/361 267/480/361
f 406/483/362 466/427/362 422/429/362 419/428/362 415/322/362
f 273/467/363 277/470/363 275/484/363 271/482/363
f 277/470/364 281/472/364 279/485/364 275/484/364
f 285/473/365 432/232/365 427/439/365 283/486/365
f 281/472/366 285/473/366 283/486/366 279/485/366
f 283/486/367 427/439/367 429/440/367
f 279/485/368 283/486/368 429/440/368 430/442/368 307/487/368
f 275/484/369 279/485/369 307/487/369 306/488/369
f 267/480/370 271/482/370 305/489/370 304/490/370
f 271/482/371 275/484/371 306/488/371 305/489/371
f 372/481/372 267/480/372 304/490/372 371/405/372
f 263/403/373 372/481/373 371/405/373 303/404/373
f 307/487/374 430/442/374 428/443/374
f 306/488/375 307/487/375 428/443/375 431/441/375
f 304/490/376 305/489/376 424/430/376 426/436/376 423/435/376
f 305/489/377 306/488/377 431/441/377 424/430/377
f 371/405/378 304/490/378 423/435/378 425/438/378
f 466/427/379 406/483/379 416/434/379 418/433/379 468/432/379
f 417/320/380 406/483/380 415/322/380 420/321/380
f 416/434/381 406/483/381 417/320/381 421/437/381
f 447/263/382 215/479/382 218/461/382 437/268/382 440/257/382 443/447/382 446/448/382
f 433/402/383 372/481/383 263/403/383
f 438/270/384 444/280/384 474/451/384 475/450/384 445/449/384 439/254/384 476/272/384 473/271/384
f 439/254/385 445/449/385 442/452/385 443/447/385 440/257/385 448/256/385 441/255/385
f 449/261/386 223/30/386 215/479/386 447/263/386 477/262/386
usemtl Material.003
f 222/491/387 189/246/387 186/245/387 226/492/387
f 221/493/388 90/494/388 188/68/388 190/248/388 214/495/388
f 214/495/389 190/248/389 189/246/389 222/491/389
f 230/496/390 185/247/390 234/128/390
f 226/492/391 186/245/391 185/247/391 230/496/391
f 90/494/392 221/493/392 464/250/392 199/249/392 187/77/392
f 187/77/393 191/76/393 192/75/393 193/74/393 194/73/393 195/72/393 196/71/393 197/70/393 198/69/393 188/68/393 90/494/393
f 222/491/394 226/492/394 451/453/394 454/454/394
f 221/493/395 214/495/395 455/456/395 453/313/395 344/497/395
f 214/495/396 222/491/396 454/454/396 455/456/396
f 230/496/397 234/128/397 450/455/397
f 226/492/398 230/496/398 450/455/398 451/453/398
f 344/497/399 452/304/399 465/457/399 464/250/399 221/493/399
f 452/304/400 344/497/400 453/313/400 463/312/400 462/311/400 461/310/400 460/309/400 459/308/400 458/307/400 457/306/400 456/305/400
